<svg xmlns="http://www.w3.org/2000/svg" viewBox="0 0 256 256">
<defs>
<linearGradient id="pgamggtblack" x1="0" y1="0" x2="0" y2="1">
  <stop offset="0%"   stop-color="rgb(147,147,147)"/>
  <stop offset="22%"  stop-color="rgb(30,30,30)"/>
  <stop offset="60%"  stop-color="rgb(20,20,20)"/>
  <stop offset="100%" stop-color="rgb(15,15,15)"/>
</linearGradient>
<linearGradient id="spamggtblack" x1="0" y1="0" x2="1" y2="0">
  <stop offset="0%"   stop-color="rgb(13,13,13)"/>
  <stop offset="100%" stop-color="rgb(9,9,9)"/>
</linearGradient>
<linearGradient id="rgamggtblack" x1="0" y1="0" x2="0" y2="1">
  <stop offset="0%"   stop-color="rgb(45,45,45)"/>
  <stop offset="50%"  stop-color="rgb(17,17,17)"/>
  <stop offset="100%" stop-color="rgb(13,13,13)"/>
</linearGradient>
<linearGradient id="glamggtblack" x1="0" y1="0" x2="1" y2="1">
  <stop offset="0%"   stop-color="rgba(210,240,255,0.75)"/>
  <stop offset="50%"  stop-color="rgba(130,190,230,0.60)"/>
  <stop offset="100%" stop-color="rgba(80,140,190,0.70)"/>
</linearGradient>
<radialGradient id="wgamggtblack" cx="42%" cy="38%" r="58%">
  <stop offset="0%"   stop-color="#aaa"/>
  <stop offset="45%"  stop-color="#555"/>
  <stop offset="100%" stop-color="#181818"/>
</radialGradient>
</defs>
<ellipse cx="136" cy="230" rx="100" ry="11" fill="rgba(0,0,0,0.22)"/>
<polygon points="171,32 200,45 234,234 186,214" fill="url(#spamggtblack)"/>
<polygon points="53,32 171,32 186,214 38,214" fill="url(#pgamggtblack)"/>
<polygon points="53,32 171,32 175,82 48,82" fill="rgb(28,28,28)"/>
<line x1="102" y1="37" x2="105" y2="76" stroke="rgb(147,147,147)" stroke-width="2" opacity="0.38"/>
<line x1="112" y1="32" x2="112" y2="82" stroke="rgb(24,24,24)" stroke-width="0.8" opacity="0.55"/>
<polygon points="40,183 183,183 186,214 38,214" fill="rgb(27,27,27)"/>
<polygon points="48,82 175,82 149,92 75,92" fill="rgb(30,30,30)"/>
<polygon points="75,92 149,92 160,170 64,170" fill="url(#rgamggtblack)"/>
<polygon points="149,92 169,103 177,181 160,170" fill="rgb(9,9,9)"/>
<polygon points="81,96 139,96 146,165 69,165" fill="rgb(136,136,136)" opacity="0.28"/>
<polygon points="75,92 149,92 175,84 48,84" fill="url(#glamggtblack)"/>
<polygon points="81,95 141,95 135,102 85,102" fill="rgba(255,255,255,0.20)"/>
<polygon points="64,170 160,170 183,181 40,181" fill="url(#glamggtblack)"/>
<polygon points="149,92 169,103 177,181 160,170" fill="url(#glamggtblack)" opacity="0.80"/>
<line x1="46" y1="115" x2="177" y2="115" stroke="rgb(23,23,23)" stroke-width="0.7" opacity="0.6"/>
<rect x="58" y="32" width="108" height="6" rx="3" fill="rgb(26,26,26)"/>
<rect x="63" y="36" width="98" height="3" rx="1" fill="rgb(22,22,22)"/>
<rect x="43" y="208" width="138" height="6" rx="3" fill="rgb(26,26,26)"/>
<rect x="59" y="32" width="23" height="7" rx="2" fill="#fffce8" opacity="0.95"/>
<rect x="142" y="32" width="23" height="7" rx="2" fill="#fffce8" opacity="0.95"/>
<rect x="61" y="34" width="19" height="2" rx="1" fill="rgba(255,255,180,0.55)"/>
<rect x="144" y="34" width="19" height="2" rx="1" fill="rgba(255,255,180,0.55)"/>
<rect x="44" y="207" width="29" height="7" rx="2" fill="#cc1100" opacity="0.92"/>
<rect x="151" y="207" width="29" height="7" rx="2" fill="#cc1100" opacity="0.92"/>
<ellipse cx="41" cy="79" rx="20" ry="17" fill="#151515"/>
<ellipse cx="40" cy="78" rx="18" ry="15" fill="#333" opacity="0.30"/>
<ellipse cx="41" cy="79" rx="11" ry="9" fill="url(#wgamggtblack)"/>
<ellipse cx="41" cy="79" rx="8" ry="6" fill="none" stroke="#c8c8cc" stroke-width="1.8"/>
<line x1="41" y1="79" x2="47.8" y2="81.2" stroke="#b0b0b4" stroke-width="1.5"/>
<line x1="41" y1="79" x2="41.1" y2="85.4" stroke="#b0b0b4" stroke-width="1.5"/>
<line x1="41" y1="79" x2="34.4" y2="81.2" stroke="#b0b0b4" stroke-width="1.5"/>
<line x1="41" y1="79" x2="37.0" y2="74.4" stroke="#b0b0b4" stroke-width="1.5"/>
<line x1="41" y1="79" x2="45.2" y2="74.4" stroke="#b0b0b4" stroke-width="1.5"/>
<circle cx="41" cy="79" r="3" fill="#ddd"/>
<ellipse cx="41" cy="79" rx="6" ry="5" fill="#222" opacity="0.6"/>
<ellipse cx="182" cy="79" rx="20" ry="17" fill="#151515"/>
<ellipse cx="181" cy="78" rx="18" ry="15" fill="#333" opacity="0.30"/>
<ellipse cx="182" cy="79" rx="11" ry="9" fill="url(#wgamggtblack)"/>
<ellipse cx="182" cy="79" rx="8" ry="6" fill="none" stroke="#c8c8cc" stroke-width="1.8"/>
<line x1="182" y1="79" x2="189.6" y2="81.2" stroke="#b0b0b4" stroke-width="1.5"/>
<line x1="182" y1="79" x2="182.9" y2="85.4" stroke="#b0b0b4" stroke-width="1.5"/>
<line x1="182" y1="79" x2="176.2" y2="81.2" stroke="#b0b0b4" stroke-width="1.5"/>
<line x1="182" y1="79" x2="178.8" y2="74.4" stroke="#b0b0b4" stroke-width="1.5"/>
<line x1="182" y1="79" x2="187.0" y2="74.4" stroke="#b0b0b4" stroke-width="1.5"/>
<circle cx="182" cy="79" r="3" fill="#ddd"/>
<ellipse cx="182" cy="79" rx="6" ry="5" fill="#222" opacity="0.6"/>
<ellipse cx="34" cy="163" rx="20" ry="17" fill="#151515"/>
<ellipse cx="33" cy="162" rx="18" ry="15" fill="#333" opacity="0.30"/>
<ellipse cx="34" cy="163" rx="11" ry="9" fill="url(#wgamggtblack)"/>
<ellipse cx="34" cy="163" rx="8" ry="6" fill="none" stroke="#c8c8cc" stroke-width="1.8"/>
<line x1="34" y1="163" x2="40.9" y2="164.9" stroke="#b0b0b4" stroke-width="1.5"/>
<line x1="34" y1="163" x2="34.2" y2="169.1" stroke="#b0b0b4" stroke-width="1.5"/>
<line x1="34" y1="163" x2="27.5" y2="164.9" stroke="#b0b0b4" stroke-width="1.5"/>
<line x1="34" y1="163" x2="30.1" y2="158.1" stroke="#b0b0b4" stroke-width="1.5"/>
<line x1="34" y1="163" x2="38.3" y2="158.1" stroke="#b0b0b4" stroke-width="1.5"/>
<circle cx="34" cy="163" r="3" fill="#ddd"/>
<ellipse cx="34" cy="163" rx="6" ry="5" fill="#222" opacity="0.6"/>
<ellipse cx="189" cy="163" rx="20" ry="17" fill="#151515"/>
<ellipse cx="188" cy="162" rx="18" ry="15" fill="#333" opacity="0.30"/>
<ellipse cx="189" cy="163" rx="11" ry="9" fill="url(#wgamggtblack)"/>
<ellipse cx="189" cy="163" rx="8" ry="6" fill="none" stroke="#c8c8cc" stroke-width="1.8"/>
<line x1="189" y1="163" x2="196.5" y2="164.9" stroke="#b0b0b4" stroke-width="1.5"/>
<line x1="189" y1="163" x2="189.8" y2="169.1" stroke="#b0b0b4" stroke-width="1.5"/>
<line x1="189" y1="163" x2="183.1" y2="164.9" stroke="#b0b0b4" stroke-width="1.5"/>
<line x1="189" y1="163" x2="185.7" y2="158.1" stroke="#b0b0b4" stroke-width="1.5"/>
<line x1="189" y1="163" x2="193.9" y2="158.1" stroke="#b0b0b4" stroke-width="1.5"/>
<circle cx="189" cy="163" r="3" fill="#ddd"/>
<ellipse cx="189" cy="163" rx="6" ry="5" fill="#222" opacity="0.6"/>
</svg>