<svg xmlns="http://www.w3.org/2000/svg" viewBox="0 0 256 256">
<defs>
<linearGradient id="pgbentleygtc" x1="0" y1="0" x2="0" y2="1">
  <stop offset="0%"   stop-color="rgb(151,144,140)"/>
  <stop offset="15%"  stop-color="rgb(90,78,71)"/>
  <stop offset="45%"  stop-color="rgb(26,10,0)"/>
  <stop offset="78%"  stop-color="rgb(16,6,0)"/>
  <stop offset="100%" stop-color="rgb(12,4,0)"/>
</linearGradient>
<linearGradient id="spbentleygtc" x1="0" y1="0" x2="1" y2="0">
  <stop offset="0%"   stop-color="rgb(10,4,0)"/>
  <stop offset="60%"  stop-color="rgb(7,2,0)"/>
  <stop offset="100%" stop-color="rgb(5,1,0)"/>
</linearGradient>
<linearGradient id="rgbentleygtc" x1="0" y1="0" x2="0" y2="1">
  <stop offset="0%"   stop-color="rgb(63,55,51)"/>
  <stop offset="40%"  stop-color="rgb(16,6,0)"/>
  <stop offset="100%" stop-color="rgb(11,4,0)"/>
</linearGradient>
<linearGradient id="glbentleygtc" x1="0" y1="0" x2="1" y2="1">
  <stop offset="0%"   stop-color="rgba(197,183,169,0.82)"/>
  <stop offset="50%"  stop-color="rgba(128,96,64,0.60)"/>
  <stop offset="100%" stop-color="rgba(96,72,48,0.72)"/>
</linearGradient>
<radialGradient id="wgbentleygtc" cx="40%" cy="35%" r="55%">
  <stop offset="0%"   stop-color="#c8c8cc"/>
  <stop offset="35%"  stop-color="#666"/>
  <stop offset="100%" stop-color="#111"/>
</radialGradient>
<filter id="sfbentleygtc" x="-30%" y="-30%" width="160%" height="160%">
  <feGaussianBlur stdDeviation="8"/>
</filter>
</defs>
<ellipse cx="140" cy="236" rx="108" ry="13" fill="rgba(0,0,0,0.30)" filter="url(#sfbentleygtc)"/>
<path d="M164,48 C174,66 182,90 186,114 C189,136 189,156 186,174 C182,190 172,204 158,213 L168,222 C184,212 196,196 200,174 C204,152 204,130 200,106 C196,80 188,56 178,40Z" fill="url(#spbentleygtc)"/>
<path d="M128,24 C118,24 100,34 92,48 C82,66 74,90 70,114 C67,136 67,156 70,174 C74,190 84,204 98,213 C110,220 120,224 128,224 C136,224 146,220 158,213 C172,204 182,190 186,174 C189,156 189,136 186,114 C182,90 174,66 164,48 C156,34 138,24 128,24Z" fill="url(#pgbentleygtc)"/>
<path d="M118,42 L128,24 L138,42" stroke="rgb(151,144,140)" stroke-width="1.5" fill="none" opacity="0.45"/>
<path d="M128,24 C118,24 100,34 92,48 C82,66 74,90 70,114 C67,136 67,156 70,174 C74,190 84,204 98,213 C110,220 120,224 128,224 C136,224 146,220 158,213 C172,204 182,190 186,174 C189,156 189,136 186,114 C182,90 174,66 164,48 C156,34 138,24 128,24Z" fill="none" stroke="rgb(151,144,140)" stroke-width="28" stroke-dasharray="40 200" stroke-dashoffset="60" opacity="0.12" stroke-linecap="round"/>
<path d="M106,32 L150,32 L154,42 L102,42Z" fill="rgb(10,4,0)" rx="2"/>
<line x1="100" y1="33" x2="156" y2="33" stroke="rgb(14,5,0)" stroke-width="1" opacity="0.7"/>
<line x1="100" y1="37" x2="156" y2="37" stroke="rgb(14,5,0)" stroke-width="1" opacity="0.7"/>
<line x1="100" y1="41" x2="156" y2="41" stroke="rgb(14,5,0)" stroke-width="1" opacity="0.7"/>
<path d="M102,106 C106,94 117,88 128,88 C139,88 150,94 154,106 L157,175 C153,185 142,192 128,192 C114,192 103,185 99,175Z" fill="url(#rgbentleygtc)"/>
<path d="M102,106 C106,94 117,88 128,88 C139,88 150,94 154,106 L157,175 C153,185 142,192 128,192 C114,192 103,185 99,175Z" fill="rgb(8,3,0)" transform="translate(12,4) scale(0.92,1)" opacity="0.85"/>
<path d="M102,106 C106,94 117,88 128,88 C139,88 150,94 154,106 L157,175 C153,185 142,192 128,192 C114,192 103,185 99,175Z" fill="rgb(123,118,114)" opacity="0.22"/>
<path d="M104,106 C108,94 118,88 128,88 C138,88 148,94 152,106 L154,122 C150,130 140,135 128,135 C116,135 106,130 102,122Z" fill="url(#glbentleygtc)"/>
<path d="M104,106 C108,94 118,88 128,88 C138,88 148,94 152,106 L154,122 C150,130 140,135 128,135 C116,135 106,130 102,122Z" fill="rgba(216,207,197,0.18)" transform="translate(0,2)"/>
<path d="M101,162 C105,152 116,146 128,146 C140,146 151,152 155,162 L157,175 C153,185 142,192 128,192 C114,192 103,185 99,175Z" fill="url(#glbentleygtc)"/>
<path d="M100,137 Q128,133 156,137" stroke="rgb(18,7,0)" stroke-width="1" fill="none" opacity="0.7"/>
<rect x="76" y="30" width="28" height="7" rx="3" fill="#fffce0" opacity="0.96"/>
<rect x="78" y="31" width="24" height="3" rx="1" fill="#ffee88" opacity="0.5"/>
<rect x="81"  y="32" width="18" height="2" rx="1" fill="rgba(255,250,200,0.7)"/>
<rect x="148" y="30" width="28" height="7" rx="3" fill="#fffce0" opacity="0.96"/>
<rect x="150" y="31" width="24" height="3" rx="1" fill="#ffee88" opacity="0.5"/>
<rect x="153"  y="32" width="18" height="2" rx="1" fill="rgba(255,250,200,0.7)"/>
<rect x="80" y="216" width="28" height="7" rx="3" fill="#cc1100" opacity="0.92"/>
<rect x="84" y="217" width="20" height="3" rx="1" fill="#ff2200" opacity="0.45"/>
<rect x="148" y="216" width="28" height="7" rx="3" fill="#cc1100" opacity="0.92"/>
<rect x="152" y="217" width="20" height="3" rx="1" fill="#ff2200" opacity="0.45"/>
<ellipse cx="74" cy="90" rx="21" ry="18" fill="#161616"/>
<ellipse cx="73" cy="89" rx="19" ry="16" fill="#2a2a2a" opacity="0.5"/>
<ellipse cx="74" cy="90" rx="12" ry="10" fill="url(#wgbentleygtc)"/>
<ellipse cx="74" cy="90" rx="8" ry="7" fill="none" stroke="#b8b8be" stroke-width="2.2"/>
<line x1="74" y1="90" x2="80.7" y2="91.9" stroke="#aaaaae" stroke-width="2"/>
<line x1="74" y1="90" x2="74.0" y2="96.2" stroke="#aaaaae" stroke-width="2"/>
<line x1="74" y1="90" x2="67.3" y2="91.9" stroke="#aaaaae" stroke-width="2"/>
<line x1="74" y1="90" x2="69.9" y2="85.0" stroke="#aaaaae" stroke-width="2"/>
<line x1="74" y1="90" x2="78.1" y2="85.0" stroke="#aaaaae" stroke-width="2"/>
<circle cx="74" cy="90" r="4" fill="#d0d0d4"/>
<circle cx="74" cy="90" r="2" fill="#888"/>
<ellipse cx="74" cy="90" rx="6" ry="5" fill="#1e1e1e" opacity="0.7"/>
<ellipse cx="182" cy="90" rx="21" ry="18" fill="#161616"/>
<ellipse cx="181" cy="89" rx="19" ry="16" fill="#2a2a2a" opacity="0.5"/>
<ellipse cx="182" cy="90" rx="12" ry="10" fill="url(#wgbentleygtc)"/>
<ellipse cx="182" cy="90" rx="8" ry="7" fill="none" stroke="#b8b8be" stroke-width="2.2"/>
<line x1="182" y1="90" x2="188.7" y2="91.9" stroke="#aaaaae" stroke-width="2"/>
<line x1="182" y1="90" x2="182.0" y2="96.2" stroke="#aaaaae" stroke-width="2"/>
<line x1="182" y1="90" x2="175.3" y2="91.9" stroke="#aaaaae" stroke-width="2"/>
<line x1="182" y1="90" x2="177.9" y2="85.0" stroke="#aaaaae" stroke-width="2"/>
<line x1="182" y1="90" x2="186.1" y2="85.0" stroke="#aaaaae" stroke-width="2"/>
<circle cx="182" cy="90" r="4" fill="#d0d0d4"/>
<circle cx="182" cy="90" r="2" fill="#888"/>
<ellipse cx="182" cy="90" rx="6" ry="5" fill="#1e1e1e" opacity="0.7"/>
<ellipse cx="70" cy="180" rx="21" ry="18" fill="#161616"/>
<ellipse cx="69" cy="179" rx="19" ry="16" fill="#2a2a2a" opacity="0.5"/>
<ellipse cx="70" cy="180" rx="12" ry="10" fill="url(#wgbentleygtc)"/>
<ellipse cx="70" cy="180" rx="8" ry="7" fill="none" stroke="#b8b8be" stroke-width="2.2"/>
<line x1="70" y1="180" x2="76.7" y2="181.9" stroke="#aaaaae" stroke-width="2"/>
<line x1="70" y1="180" x2="70.0" y2="186.2" stroke="#aaaaae" stroke-width="2"/>
<line x1="70" y1="180" x2="63.3" y2="181.9" stroke="#aaaaae" stroke-width="2"/>
<line x1="70" y1="180" x2="65.9" y2="175.0" stroke="#aaaaae" stroke-width="2"/>
<line x1="70" y1="180" x2="74.1" y2="175.0" stroke="#aaaaae" stroke-width="2"/>
<circle cx="70" cy="180" r="4" fill="#d0d0d4"/>
<circle cx="70" cy="180" r="2" fill="#888"/>
<ellipse cx="70" cy="180" rx="6" ry="5" fill="#1e1e1e" opacity="0.7"/>
<ellipse cx="186" cy="180" rx="21" ry="18" fill="#161616"/>
<ellipse cx="185" cy="179" rx="19" ry="16" fill="#2a2a2a" opacity="0.5"/>
<ellipse cx="186" cy="180" rx="12" ry="10" fill="url(#wgbentleygtc)"/>
<ellipse cx="186" cy="180" rx="8" ry="7" fill="none" stroke="#b8b8be" stroke-width="2.2"/>
<line x1="186" y1="180" x2="192.7" y2="181.9" stroke="#aaaaae" stroke-width="2"/>
<line x1="186" y1="180" x2="186.0" y2="186.2" stroke="#aaaaae" stroke-width="2"/>
<line x1="186" y1="180" x2="179.3" y2="181.9" stroke="#aaaaae" stroke-width="2"/>
<line x1="186" y1="180" x2="181.9" y2="175.0" stroke="#aaaaae" stroke-width="2"/>
<line x1="186" y1="180" x2="190.1" y2="175.0" stroke="#aaaaae" stroke-width="2"/>
<circle cx="186" cy="180" r="4" fill="#d0d0d4"/>
<circle cx="186" cy="180" r="2" fill="#888"/>
<ellipse cx="186" cy="180" rx="6" ry="5" fill="#1e1e1e" opacity="0.7"/>
</svg>