<svg xmlns="http://www.w3.org/2000/svg" viewBox="0 0 256 256">
<defs>
<linearGradient id="pgchallenger" x1="0" y1="0" x2="0" y2="1">
  <stop offset="0%"   stop-color="rgb(147,147,147)"/>
  <stop offset="15%"  stop-color="rgb(83,83,83)"/>
  <stop offset="45%"  stop-color="rgb(17,17,17)"/>
  <stop offset="78%"  stop-color="rgb(11,11,11)"/>
  <stop offset="100%" stop-color="rgb(8,8,8)"/>
</linearGradient>
<linearGradient id="spchallenger" x1="0" y1="0" x2="1" y2="0">
  <stop offset="0%"   stop-color="rgb(7,7,7)"/>
  <stop offset="60%"  stop-color="rgb(4,4,4)"/>
  <stop offset="100%" stop-color="rgb(3,3,3)"/>
</linearGradient>
<linearGradient id="rgchallenger" x1="0" y1="0" x2="0" y2="1">
  <stop offset="0%"   stop-color="rgb(57,57,57)"/>
  <stop offset="40%"  stop-color="rgb(8,8,8)"/>
  <stop offset="100%" stop-color="rgb(5,5,5)"/>
</linearGradient>
<linearGradient id="glchallenger" x1="0" y1="0" x2="1" y2="1">
  <stop offset="0%"   stop-color="rgba(176,190,205,0.82)"/>
  <stop offset="50%"  stop-color="rgba(80,112,144,0.60)"/>
  <stop offset="100%" stop-color="rgba(60,84,108,0.72)"/>
</linearGradient>
<radialGradient id="wgchallenger" cx="40%" cy="35%" r="55%">
  <stop offset="0%"   stop-color="#c8c8cc"/>
  <stop offset="35%"  stop-color="#666"/>
  <stop offset="100%" stop-color="#111"/>
</radialGradient>
<filter id="sfchallenger" x="-30%" y="-30%" width="160%" height="160%">
  <feGaussianBlur stdDeviation="8"/>
</filter>
</defs>
<ellipse cx="140" cy="236" rx="108" ry="13" fill="rgba(0,0,0,0.30)" filter="url(#sfchallenger)"/>
<path d="M174,52 C184,72 192,98 194,122 C196,144 194,164 190,180 C184,196 172,208 158,216 L168,226 C186,216 200,200 206,180 C212,160 212,136 210,112 C208,86 200,58 188,40Z" fill="url(#spchallenger)"/>
<path d="M128,26 C112,26 90,36 82,52 C72,72 64,98 62,122 C60,144 62,164 66,180 C72,196 84,208 98,216 C110,222 120,226 128,226 C136,226 146,222 158,216 C172,208 184,196 190,180 C194,164 196,144 194,122 C192,98 184,72 174,52 C166,36 144,26 128,26Z" fill="url(#pgchallenger)"/>
<path d="M128,26 C112,26 90,36 82,52 C72,72 64,98 62,122 C60,144 62,164 66,180 C72,196 84,208 98,216 C110,222 120,226 128,226 C136,226 146,222 158,216 C172,208 184,196 190,180 C194,164 196,144 194,122 C192,98 184,72 174,52 C166,36 144,26 128,26Z" fill="none" stroke="rgb(147,147,147)" stroke-width="28" stroke-dasharray="40 200" stroke-dashoffset="60" opacity="0.12" stroke-linecap="round"/>
<path d="M96,36 L160,36 L164,50 L92,50Z" fill="rgb(6,6,6)" rx="2"/>
<line x1="100" y1="33" x2="156" y2="33" stroke="rgb(9,9,9)" stroke-width="1" opacity="0.7"/>
<line x1="100" y1="37" x2="156" y2="37" stroke="rgb(9,9,9)" stroke-width="1" opacity="0.7"/>
<line x1="100" y1="41" x2="156" y2="41" stroke="rgb(9,9,9)" stroke-width="1" opacity="0.7"/>
<path d="M100,108 C104,96 116,90 128,90 C140,90 152,96 156,108 L158,172 C154,182 142,188 128,188 C114,188 102,182 98,172Z" fill="url(#rgchallenger)"/>
<path d="M100,108 C104,96 116,90 128,90 C140,90 152,96 156,108 L158,172 C154,182 142,188 128,188 C114,188 102,182 98,172Z" fill="rgb(4,4,4)" transform="translate(12,4) scale(0.92,1)" opacity="0.85"/>
<path d="M100,108 C104,96 116,90 128,90 C140,90 152,96 156,108 L158,172 C154,182 142,188 128,188 C114,188 102,182 98,172Z" fill="rgb(119,119,119)" opacity="0.22"/>
<path d="M102,107 C106,95 116,89 128,89 C140,89 150,95 154,107 L156,120 C152,128 140,133 128,133 C116,133 104,128 100,120Z" fill="url(#glchallenger)"/>
<path d="M102,107 C106,95 116,89 128,89 C140,89 150,95 154,107 L156,120 C152,128 140,133 128,133 C116,133 104,128 100,120Z" fill="rgba(202,212,221,0.18)" transform="translate(0,2)"/>
<path d="M100,160 C104,150 115,144 128,144 C141,144 152,150 156,160 L157,172 C153,182 141,188 128,188 C115,188 103,182 99,172Z" fill="url(#glchallenger)"/>
<path d="M98,136 Q128,132 158,136" stroke="rgb(12,12,12)" stroke-width="1" fill="none" opacity="0.7"/>
<rect x="70" y="34" width="28" height="7" rx="3" fill="#fffce0" opacity="0.96"/>
<rect x="72" y="35" width="24" height="3" rx="1" fill="#ffee88" opacity="0.5"/>
<rect x="75"  y="36" width="18" height="2" rx="1" fill="rgba(255,250,200,0.7)"/>
<rect x="156" y="34" width="28" height="7" rx="3" fill="#fffce0" opacity="0.96"/>
<rect x="158" y="35" width="24" height="3" rx="1" fill="#ffee88" opacity="0.5"/>
<rect x="161"  y="36" width="18" height="2" rx="1" fill="rgba(255,250,200,0.7)"/>
<rect x="74" y="218" width="28" height="7" rx="3" fill="#cc1100" opacity="0.92"/>
<rect x="78" y="219" width="20" height="3" rx="1" fill="#ff2200" opacity="0.45"/>
<rect x="154" y="218" width="28" height="7" rx="3" fill="#cc1100" opacity="0.92"/>
<rect x="158" y="219" width="20" height="3" rx="1" fill="#ff2200" opacity="0.45"/>
<ellipse cx="66" cy="94" rx="24" ry="21" fill="#161616"/>
<ellipse cx="65" cy="93" rx="22" ry="19" fill="#2a2a2a" opacity="0.5"/>
<ellipse cx="66" cy="94" rx="14" ry="12" fill="url(#wgchallenger)"/>
<ellipse cx="66" cy="94" rx="10" ry="8" fill="none" stroke="#b8b8be" stroke-width="2.2"/>
<line x1="66" y1="94" x2="74.6" y2="96.4" stroke="#aaaaae" stroke-width="2"/>
<line x1="66" y1="94" x2="66.0" y2="101.9" stroke="#aaaaae" stroke-width="2"/>
<line x1="66" y1="94" x2="57.4" y2="96.4" stroke="#aaaaae" stroke-width="2"/>
<line x1="66" y1="94" x2="60.7" y2="87.6" stroke="#aaaaae" stroke-width="2"/>
<line x1="66" y1="94" x2="71.3" y2="87.6" stroke="#aaaaae" stroke-width="2"/>
<circle cx="66" cy="94" r="4" fill="#d0d0d4"/>
<circle cx="66" cy="94" r="2" fill="#888"/>
<ellipse cx="66" cy="94" rx="7" ry="6" fill="#1e1e1e" opacity="0.7"/>
<ellipse cx="190" cy="94" rx="24" ry="21" fill="#161616"/>
<ellipse cx="189" cy="93" rx="22" ry="19" fill="#2a2a2a" opacity="0.5"/>
<ellipse cx="190" cy="94" rx="14" ry="12" fill="url(#wgchallenger)"/>
<ellipse cx="190" cy="94" rx="10" ry="8" fill="none" stroke="#b8b8be" stroke-width="2.2"/>
<line x1="190" y1="94" x2="198.6" y2="96.4" stroke="#aaaaae" stroke-width="2"/>
<line x1="190" y1="94" x2="190.0" y2="101.9" stroke="#aaaaae" stroke-width="2"/>
<line x1="190" y1="94" x2="181.4" y2="96.4" stroke="#aaaaae" stroke-width="2"/>
<line x1="190" y1="94" x2="184.7" y2="87.6" stroke="#aaaaae" stroke-width="2"/>
<line x1="190" y1="94" x2="195.3" y2="87.6" stroke="#aaaaae" stroke-width="2"/>
<circle cx="190" cy="94" r="4" fill="#d0d0d4"/>
<circle cx="190" cy="94" r="2" fill="#888"/>
<ellipse cx="190" cy="94" rx="7" ry="6" fill="#1e1e1e" opacity="0.7"/>
<ellipse cx="62" cy="182" rx="24" ry="21" fill="#161616"/>
<ellipse cx="61" cy="181" rx="22" ry="19" fill="#2a2a2a" opacity="0.5"/>
<ellipse cx="62" cy="182" rx="14" ry="12" fill="url(#wgchallenger)"/>
<ellipse cx="62" cy="182" rx="10" ry="8" fill="none" stroke="#b8b8be" stroke-width="2.2"/>
<line x1="62" y1="182" x2="70.6" y2="184.4" stroke="#aaaaae" stroke-width="2"/>
<line x1="62" y1="182" x2="62.0" y2="189.9" stroke="#aaaaae" stroke-width="2"/>
<line x1="62" y1="182" x2="53.4" y2="184.4" stroke="#aaaaae" stroke-width="2"/>
<line x1="62" y1="182" x2="56.7" y2="175.6" stroke="#aaaaae" stroke-width="2"/>
<line x1="62" y1="182" x2="67.3" y2="175.6" stroke="#aaaaae" stroke-width="2"/>
<circle cx="62" cy="182" r="4" fill="#d0d0d4"/>
<circle cx="62" cy="182" r="2" fill="#888"/>
<ellipse cx="62" cy="182" rx="7" ry="6" fill="#1e1e1e" opacity="0.7"/>
<ellipse cx="194" cy="182" rx="24" ry="21" fill="#161616"/>
<ellipse cx="193" cy="181" rx="22" ry="19" fill="#2a2a2a" opacity="0.5"/>
<ellipse cx="194" cy="182" rx="14" ry="12" fill="url(#wgchallenger)"/>
<ellipse cx="194" cy="182" rx="10" ry="8" fill="none" stroke="#b8b8be" stroke-width="2.2"/>
<line x1="194" y1="182" x2="202.6" y2="184.4" stroke="#aaaaae" stroke-width="2"/>
<line x1="194" y1="182" x2="194.0" y2="189.9" stroke="#aaaaae" stroke-width="2"/>
<line x1="194" y1="182" x2="185.4" y2="184.4" stroke="#aaaaae" stroke-width="2"/>
<line x1="194" y1="182" x2="188.7" y2="175.6" stroke="#aaaaae" stroke-width="2"/>
<line x1="194" y1="182" x2="199.3" y2="175.6" stroke="#aaaaae" stroke-width="2"/>
<circle cx="194" cy="182" r="4" fill="#d0d0d4"/>
<circle cx="194" cy="182" r="2" fill="#888"/>
<ellipse cx="194" cy="182" rx="7" ry="6" fill="#1e1e1e" opacity="0.7"/>
</svg>