<svg xmlns="http://www.w3.org/2000/svg" viewBox="0 0 256 256">
<defs>
<linearGradient id="pgcybertruck" x1="0" y1="0" x2="0" y2="1">
  <stop offset="0%"   stop-color="rgb(231,231,234)"/>
  <stop offset="15%"  stop-color="rgb(216,216,222)"/>
  <stop offset="45%"  stop-color="rgb(202,202,210)"/>
  <stop offset="78%"  stop-color="rgb(131,131,136)"/>
  <stop offset="100%" stop-color="rgb(96,96,100)"/>
</linearGradient>
<linearGradient id="spcybertruck" x1="0" y1="0" x2="1" y2="0">
  <stop offset="0%"   stop-color="rgb(84,84,88)"/>
  <stop offset="60%"  stop-color="rgb(56,56,58)"/>
  <stop offset="100%" stop-color="rgb(40,40,41)"/>
</linearGradient>
<linearGradient id="rgcybertruck" x1="0" y1="0" x2="0" y2="1">
  <stop offset="0%"   stop-color="rgb(187,187,195)"/>
  <stop offset="40%"  stop-color="rgb(170,171,180)"/>
  <stop offset="100%" stop-color="rgb(118,119,125)"/>
</linearGradient>
<linearGradient id="glcybertruck" x1="0" y1="0" x2="1" y2="1">
  <stop offset="0%"   stop-color="rgba(205,226,233,0.82)"/>
  <stop offset="50%"  stop-color="rgba(144,192,208,0.60)"/>
  <stop offset="100%" stop-color="rgba(108,144,156,0.72)"/>
</linearGradient>
<radialGradient id="wgcybertruck" cx="40%" cy="35%" r="55%">
  <stop offset="0%"   stop-color="#c8c8cc"/>
  <stop offset="35%"  stop-color="#666"/>
  <stop offset="100%" stop-color="#111"/>
</radialGradient>
<filter id="sfcybertruck" x="-30%" y="-30%" width="160%" height="160%">
  <feGaussianBlur stdDeviation="8"/>
</filter>
</defs>
<ellipse cx="140" cy="236" rx="108" ry="13" fill="rgba(0,0,0,0.30)" filter="url(#sfcybertruck)"/>
<path d="M174,38 C184,56 188,80 190,104 C192,126 192,146 190,162 C186,176 178,186 168,192 L178,202 C192,194 202,182 206,162 C210,142 210,118 208,94 C206,68 200,42 190,24Z" fill="url(#spcybertruck)"/>
<path d="M128,18 C112,18 90,24 82,38 C72,56 68,80 66,104 C64,126 64,146 66,162 C70,176 78,186 88,192 C100,198 114,200 128,200 C142,200 156,198 168,192 C178,186 186,176 190,162 C192,146 192,126 190,104 C188,80 184,56 174,38 C166,24 144,18 128,18Z" fill="url(#pgcybertruck)"/>
<path d="M128,18 C112,18 90,24 82,38 C72,56 68,80 66,104 C64,126 64,146 66,162 C70,176 78,186 88,192 C100,198 114,200 128,200 C142,200 156,198 168,192 C178,186 186,176 190,162 C192,146 192,126 190,104 C188,80 184,56 174,38 C166,24 144,18 128,18Z" fill="none" stroke="rgb(231,231,234)" stroke-width="28" stroke-dasharray="40 200" stroke-dashoffset="60" opacity="0.12" stroke-linecap="round"/>
<path d="M92,24 L164,24 L168,38 L88,38Z" fill="rgb(80,80,84)" rx="2"/>
<line x1="100" y1="27" x2="156" y2="27" stroke="rgb(111,111,115)" stroke-width="1" opacity="0.7"/>
<line x1="100" y1="31" x2="156" y2="31" stroke="rgb(111,111,115)" stroke-width="1" opacity="0.7"/>
<line x1="100" y1="35" x2="156" y2="35" stroke="rgb(111,111,115)" stroke-width="1" opacity="0.7"/>
<path d="M100,94 C104,82 116,76 128,76 C140,76 152,82 156,94 L158,148 C154,158 142,164 128,164 C114,164 102,158 98,148Z" fill="url(#rgcybertruck)"/>
<path d="M100,94 C104,82 116,76 128,76 C140,76 152,82 156,94 L158,148 C154,158 142,164 128,164 C114,164 102,158 98,148Z" fill="rgb(88,88,93)" transform="translate(12,4) scale(0.92,1)" opacity="0.85"/>
<path d="M100,94 C104,82 116,76 128,76 C140,76 152,82 156,94 L158,148 C154,158 142,164 128,164 C114,164 102,158 98,148Z" fill="rgb(208,208,213)" opacity="0.22"/>
<path d="M102,94 C106,82 116,76 128,76 C140,76 150,82 154,94 L156,108 C152,116 140,121 128,121 C116,121 104,116 100,108Z" fill="url(#glcybertruck)"/>
<path d="M102,94 C106,82 116,76 128,76 C140,76 150,82 154,94 L156,108 C152,116 140,121 128,121 C116,121 104,116 100,108Z" fill="rgba(221,236,240,0.18)" transform="translate(0,2)"/>
<path d="M102,136 C106,126 116,120 128,120 C140,120 150,126 154,136 L156,148 C152,158 140,164 128,164 C116,164 104,158 100,148Z" fill="url(#glcybertruck)"/>
<path d="M98,122 Q128,118 158,122" stroke="rgb(145,145,151)" stroke-width="1" fill="none" opacity="0.7"/>
<rect x="70" y="22" width="28" height="7" rx="3" fill="#fffce0" opacity="0.96"/>
<rect x="72" y="23" width="24" height="3" rx="1" fill="#ffee88" opacity="0.5"/>
<rect x="75"  y="24" width="18" height="2" rx="1" fill="rgba(255,250,200,0.7)"/>
<rect x="154" y="22" width="28" height="7" rx="3" fill="#fffce0" opacity="0.96"/>
<rect x="156" y="23" width="24" height="3" rx="1" fill="#ffee88" opacity="0.5"/>
<rect x="159"  y="24" width="18" height="2" rx="1" fill="rgba(255,250,200,0.7)"/>
<rect x="72" y="192" width="28" height="7" rx="3" fill="#cc1100" opacity="0.92"/>
<rect x="76" y="193" width="20" height="3" rx="1" fill="#ff2200" opacity="0.45"/>
<rect x="156" y="192" width="28" height="7" rx="3" fill="#cc1100" opacity="0.92"/>
<rect x="160" y="193" width="20" height="3" rx="1" fill="#ff2200" opacity="0.45"/>
<ellipse cx="66" cy="86" rx="26" ry="22" fill="#161616"/>
<ellipse cx="65" cy="85" rx="24" ry="21" fill="#2a2a2a" opacity="0.5"/>
<ellipse cx="66" cy="86" rx="15" ry="13" fill="url(#wgcybertruck)"/>
<ellipse cx="66" cy="86" rx="10" ry="8" fill="none" stroke="#b8b8be" stroke-width="2.2"/>
<line x1="66" y1="86" x2="74.6" y2="88.4" stroke="#aaaaae" stroke-width="2"/>
<line x1="66" y1="86" x2="66.0" y2="93.9" stroke="#aaaaae" stroke-width="2"/>
<line x1="66" y1="86" x2="57.4" y2="88.4" stroke="#aaaaae" stroke-width="2"/>
<line x1="66" y1="86" x2="60.7" y2="79.6" stroke="#aaaaae" stroke-width="2"/>
<line x1="66" y1="86" x2="71.3" y2="79.6" stroke="#aaaaae" stroke-width="2"/>
<circle cx="66" cy="86" r="4" fill="#d0d0d4"/>
<circle cx="66" cy="86" r="2" fill="#888"/>
<ellipse cx="66" cy="86" rx="8" ry="7" fill="#1e1e1e" opacity="0.7"/>
<ellipse cx="190" cy="86" rx="26" ry="22" fill="#161616"/>
<ellipse cx="189" cy="85" rx="24" ry="21" fill="#2a2a2a" opacity="0.5"/>
<ellipse cx="190" cy="86" rx="15" ry="13" fill="url(#wgcybertruck)"/>
<ellipse cx="190" cy="86" rx="10" ry="8" fill="none" stroke="#b8b8be" stroke-width="2.2"/>
<line x1="190" y1="86" x2="198.6" y2="88.4" stroke="#aaaaae" stroke-width="2"/>
<line x1="190" y1="86" x2="190.0" y2="93.9" stroke="#aaaaae" stroke-width="2"/>
<line x1="190" y1="86" x2="181.4" y2="88.4" stroke="#aaaaae" stroke-width="2"/>
<line x1="190" y1="86" x2="184.7" y2="79.6" stroke="#aaaaae" stroke-width="2"/>
<line x1="190" y1="86" x2="195.3" y2="79.6" stroke="#aaaaae" stroke-width="2"/>
<circle cx="190" cy="86" r="4" fill="#d0d0d4"/>
<circle cx="190" cy="86" r="2" fill="#888"/>
<ellipse cx="190" cy="86" rx="8" ry="7" fill="#1e1e1e" opacity="0.7"/>
<ellipse cx="64" cy="170" rx="26" ry="22" fill="#161616"/>
<ellipse cx="63" cy="169" rx="24" ry="21" fill="#2a2a2a" opacity="0.5"/>
<ellipse cx="64" cy="170" rx="15" ry="13" fill="url(#wgcybertruck)"/>
<ellipse cx="64" cy="170" rx="10" ry="8" fill="none" stroke="#b8b8be" stroke-width="2.2"/>
<line x1="64" y1="170" x2="72.6" y2="172.4" stroke="#aaaaae" stroke-width="2"/>
<line x1="64" y1="170" x2="64.0" y2="177.9" stroke="#aaaaae" stroke-width="2"/>
<line x1="64" y1="170" x2="55.4" y2="172.4" stroke="#aaaaae" stroke-width="2"/>
<line x1="64" y1="170" x2="58.7" y2="163.6" stroke="#aaaaae" stroke-width="2"/>
<line x1="64" y1="170" x2="69.3" y2="163.6" stroke="#aaaaae" stroke-width="2"/>
<circle cx="64" cy="170" r="4" fill="#d0d0d4"/>
<circle cx="64" cy="170" r="2" fill="#888"/>
<ellipse cx="64" cy="170" rx="8" ry="7" fill="#1e1e1e" opacity="0.7"/>
<ellipse cx="192" cy="170" rx="26" ry="22" fill="#161616"/>
<ellipse cx="191" cy="169" rx="24" ry="21" fill="#2a2a2a" opacity="0.5"/>
<ellipse cx="192" cy="170" rx="15" ry="13" fill="url(#wgcybertruck)"/>
<ellipse cx="192" cy="170" rx="10" ry="8" fill="none" stroke="#b8b8be" stroke-width="2.2"/>
<line x1="192" y1="170" x2="200.6" y2="172.4" stroke="#aaaaae" stroke-width="2"/>
<line x1="192" y1="170" x2="192.0" y2="177.9" stroke="#aaaaae" stroke-width="2"/>
<line x1="192" y1="170" x2="183.4" y2="172.4" stroke="#aaaaae" stroke-width="2"/>
<line x1="192" y1="170" x2="186.7" y2="163.6" stroke="#aaaaae" stroke-width="2"/>
<line x1="192" y1="170" x2="197.3" y2="163.6" stroke="#aaaaae" stroke-width="2"/>
<circle cx="192" cy="170" r="4" fill="#d0d0d4"/>
<circle cx="192" cy="170" r="2" fill="#888"/>
<ellipse cx="192" cy="170" rx="8" ry="7" fill="#1e1e1e" opacity="0.7"/>
</svg>