<svg xmlns="http://www.w3.org/2000/svg" viewBox="0 0 256 256">
<defs>
<linearGradient id="pgcybertruck" x1="0" y1="0" x2="0" y2="1">
  <stop offset="0%"   stop-color="rgb(229,229,233)"/>
  <stop offset="22%"  stop-color="rgb(202,202,210)"/>
  <stop offset="60%"  stop-color="rgb(137,137,142)"/>
  <stop offset="100%" stop-color="rgb(105,105,109)"/>
</linearGradient>
<linearGradient id="spcybertruck" x1="0" y1="0" x2="1" y2="0">
  <stop offset="0%"   stop-color="rgb(90,90,94)"/>
  <stop offset="100%" stop-color="rgb(60,60,63)"/>
</linearGradient>
<linearGradient id="rgcybertruck" x1="0" y1="0" x2="0" y2="1">
  <stop offset="0%"   stop-color="rgb(180,181,189)"/>
  <stop offset="50%"  stop-color="rgb(170,171,180)"/>
  <stop offset="100%" stop-color="rgb(136,136,144)"/>
</linearGradient>
<linearGradient id="glcybertruck" x1="0" y1="0" x2="1" y2="1">
  <stop offset="0%"   stop-color="rgba(210,240,255,0.75)"/>
  <stop offset="50%"  stop-color="rgba(130,190,230,0.60)"/>
  <stop offset="100%" stop-color="rgba(80,140,190,0.70)"/>
</linearGradient>
<radialGradient id="wgcybertruck" cx="42%" cy="38%" r="58%">
  <stop offset="0%"   stop-color="#aaa"/>
  <stop offset="45%"  stop-color="#555"/>
  <stop offset="100%" stop-color="#181818"/>
</radialGradient>
</defs>
<ellipse cx="141" cy="238" rx="100" ry="11" fill="rgba(0,0,0,0.22)"/>
<polygon points="177,24 212,40 250,246 192,222" fill="url(#spcybertruck)"/>
<polygon points="47,24 177,24 192,222 32,222" fill="url(#pgcybertruck)"/>
<polygon points="47,24 177,24 179,57 44,57" fill="rgb(193,193,201)"/>
<line x1="102" y1="29" x2="105" y2="51" stroke="rgb(229,229,233)" stroke-width="2" opacity="0.38"/>
<line x1="112" y1="24" x2="112" y2="57" stroke="rgb(161,161,168)" stroke-width="0.8" opacity="0.55"/>
<polygon points="38,142 186,142 192,222 32,222" fill="rgb(185,185,193)"/>
<polygon points="44,57 179,57 166,76 58,76" fill="rgb(202,202,210)"/>
<polygon points="58,76 166,76 178,150 46,150" fill="url(#rgcybertruck)"/>
<polygon points="166,76 190,89 198,163 178,150" fill="rgb(98,99,104)"/>
<polygon points="64,80 156,80 164,145 51,145" fill="rgb(212,213,217)" opacity="0.28"/>
<polygon points="58,76 166,76 179,59 44,59" fill="url(#glcybertruck)"/>
<polygon points="64,79 158,79 152,86 68,86" fill="rgba(255,255,255,0.20)"/>
<polygon points="46,150 178,150 186,140 38,140" fill="url(#glcybertruck)"/>
<polygon points="166,76 190,89 198,163 178,150" fill="url(#glcybertruck)" opacity="0.80"/>
<line x1="40" y1="115" x2="183" y2="115" stroke="rgb(157,157,163)" stroke-width="0.7" opacity="0.6"/>
<rect x="52" y="24" width="120" height="6" rx="3" fill="rgb(177,177,184)"/>
<rect x="57" y="28" width="110" height="3" rx="1" fill="rgb(151,151,157)"/>
<rect x="37" y="216" width="150" height="6" rx="3" fill="rgb(177,177,184)"/>
<rect x="53" y="24" width="26" height="7" rx="2" fill="#fffce8" opacity="0.95"/>
<rect x="145" y="24" width="26" height="7" rx="2" fill="#fffce8" opacity="0.95"/>
<rect x="55" y="26" width="22" height="2" rx="1" fill="rgba(255,255,180,0.55)"/>
<rect x="147" y="26" width="22" height="2" rx="1" fill="rgba(255,255,180,0.55)"/>
<rect x="38" y="215" width="32" height="7" rx="2" fill="#cc1100" opacity="0.92"/>
<rect x="154" y="215" width="32" height="7" rx="2" fill="#cc1100" opacity="0.92"/>
<ellipse cx="35" cy="75" rx="24" ry="20" fill="#151515"/>
<ellipse cx="34" cy="74" rx="22" ry="18" fill="#333" opacity="0.30"/>
<ellipse cx="35" cy="75" rx="15" ry="12" fill="url(#wgcybertruck)"/>
<ellipse cx="35" cy="75" rx="10" ry="8" fill="none" stroke="#c8c8cc" stroke-width="1.8"/>
<line x1="35" y1="75" x2="43.5" y2="77.8" stroke="#b0b0b4" stroke-width="1.5"/>
<line x1="35" y1="75" x2="35.1" y2="83.0" stroke="#b0b0b4" stroke-width="1.5"/>
<line x1="35" y1="75" x2="26.7" y2="77.8" stroke="#b0b0b4" stroke-width="1.5"/>
<line x1="35" y1="75" x2="29.9" y2="69.4" stroke="#b0b0b4" stroke-width="1.5"/>
<line x1="35" y1="75" x2="40.3" y2="69.4" stroke="#b0b0b4" stroke-width="1.5"/>
<circle cx="35" cy="75" r="3" fill="#ddd"/>
<ellipse cx="35" cy="75" rx="9" ry="7" fill="#222" opacity="0.6"/>
<ellipse cx="188" cy="75" rx="24" ry="20" fill="#151515"/>
<ellipse cx="187" cy="74" rx="22" ry="18" fill="#333" opacity="0.30"/>
<ellipse cx="188" cy="75" rx="15" ry="12" fill="url(#wgcybertruck)"/>
<ellipse cx="188" cy="75" rx="10" ry="8" fill="none" stroke="#c8c8cc" stroke-width="1.8"/>
<line x1="188" y1="75" x2="197.3" y2="77.8" stroke="#b0b0b4" stroke-width="1.5"/>
<line x1="188" y1="75" x2="188.9" y2="83.0" stroke="#b0b0b4" stroke-width="1.5"/>
<line x1="188" y1="75" x2="180.5" y2="77.8" stroke="#b0b0b4" stroke-width="1.5"/>
<line x1="188" y1="75" x2="183.7" y2="69.4" stroke="#b0b0b4" stroke-width="1.5"/>
<line x1="188" y1="75" x2="194.1" y2="69.4" stroke="#b0b0b4" stroke-width="1.5"/>
<circle cx="188" cy="75" r="3" fill="#ddd"/>
<ellipse cx="188" cy="75" rx="9" ry="7" fill="#222" opacity="0.6"/>
<ellipse cx="28" cy="166" rx="24" ry="20" fill="#151515"/>
<ellipse cx="27" cy="165" rx="22" ry="18" fill="#333" opacity="0.30"/>
<ellipse cx="28" cy="166" rx="15" ry="12" fill="url(#wgcybertruck)"/>
<ellipse cx="28" cy="166" rx="10" ry="8" fill="none" stroke="#c8c8cc" stroke-width="1.8"/>
<line x1="28" y1="166" x2="36.6" y2="168.9" stroke="#b0b0b4" stroke-width="1.5"/>
<line x1="28" y1="166" x2="28.2" y2="174.1" stroke="#b0b0b4" stroke-width="1.5"/>
<line x1="28" y1="166" x2="19.8" y2="168.9" stroke="#b0b0b4" stroke-width="1.5"/>
<line x1="28" y1="166" x2="23.0" y2="160.4" stroke="#b0b0b4" stroke-width="1.5"/>
<line x1="28" y1="166" x2="33.4" y2="160.4" stroke="#b0b0b4" stroke-width="1.5"/>
<circle cx="28" cy="166" r="3" fill="#ddd"/>
<ellipse cx="28" cy="166" rx="9" ry="7" fill="#222" opacity="0.6"/>
<ellipse cx="195" cy="166" rx="24" ry="20" fill="#151515"/>
<ellipse cx="194" cy="165" rx="22" ry="18" fill="#333" opacity="0.30"/>
<ellipse cx="195" cy="166" rx="15" ry="12" fill="url(#wgcybertruck)"/>
<ellipse cx="195" cy="166" rx="10" ry="8" fill="none" stroke="#c8c8cc" stroke-width="1.8"/>
<line x1="195" y1="166" x2="204.2" y2="168.9" stroke="#b0b0b4" stroke-width="1.5"/>
<line x1="195" y1="166" x2="195.8" y2="174.1" stroke="#b0b0b4" stroke-width="1.5"/>
<line x1="195" y1="166" x2="187.4" y2="168.9" stroke="#b0b0b4" stroke-width="1.5"/>
<line x1="195" y1="166" x2="190.6" y2="160.4" stroke="#b0b0b4" stroke-width="1.5"/>
<line x1="195" y1="166" x2="201.0" y2="160.4" stroke="#b0b0b4" stroke-width="1.5"/>
<circle cx="195" cy="166" r="3" fill="#ddd"/>
<ellipse cx="195" cy="166" rx="9" ry="7" fill="#222" opacity="0.6"/>
</svg>