<svg xmlns="http://www.w3.org/2000/svg" viewBox="0 0 256 256">
<defs>
<linearGradient id="pgferrari488" x1="0" y1="0" x2="0" y2="1">
  <stop offset="0%"   stop-color="rgb(230,141,132)"/>
  <stop offset="22%"  stop-color="rgb(204,18,0)"/>
  <stop offset="60%"  stop-color="rgb(138,12,0)"/>
  <stop offset="100%" stop-color="rgb(106,9,0)"/>
</linearGradient>
<linearGradient id="spferrari488" x1="0" y1="0" x2="1" y2="0">
  <stop offset="0%"   stop-color="rgb(91,8,0)"/>
  <stop offset="100%" stop-color="rgb(61,5,0)"/>
</linearGradient>
<linearGradient id="rgferrari488" x1="0" y1="0" x2="0" y2="1">
  <stop offset="0%"   stop-color="rgb(191,44,30)"/>
  <stop offset="50%"  stop-color="rgb(183,16,0)"/>
  <stop offset="100%" stop-color="rgb(146,12,0)"/>
</linearGradient>
<linearGradient id="glferrari488" x1="0" y1="0" x2="1" y2="1">
  <stop offset="0%"   stop-color="rgba(210,240,255,0.75)"/>
  <stop offset="50%"  stop-color="rgba(130,190,230,0.60)"/>
  <stop offset="100%" stop-color="rgba(80,140,190,0.70)"/>
</linearGradient>
<radialGradient id="wgferrari488" cx="42%" cy="38%" r="58%">
  <stop offset="0%"   stop-color="#aaa"/>
  <stop offset="45%"  stop-color="#555"/>
  <stop offset="100%" stop-color="#181818"/>
</radialGradient>
</defs>
<ellipse cx="139" cy="226" rx="100" ry="11" fill="rgba(0,0,0,0.22)"/>
<polygon points="168,34 201,49 239,232 185,210" fill="url(#spferrari488)"/>
<polygon points="56,34 168,34 185,210 39,210" fill="url(#pgferrari488)"/>
<polygon points="56,34 168,34 173,86 50,86" fill="rgb(195,17,0)"/>
<line x1="102" y1="39" x2="105" y2="80" stroke="rgb(230,141,132)" stroke-width="2" opacity="0.38"/>
<line x1="112" y1="34" x2="112" y2="86" stroke="rgb(163,14,0)" stroke-width="0.8" opacity="0.55"/>
<polygon points="41,185 182,185 185,210 39,210" fill="rgb(187,16,0)"/>
<polygon points="50,86 173,86 143,96 81,96" fill="rgb(204,18,0)"/>
<polygon points="81,96 143,96 154,166 70,166" fill="url(#rgferrari488)"/>
<polygon points="143,96 165,108 173,178 154,166" fill="rgb(106,9,0)"/>
<polygon points="87,100 133,100 140,161 75,161" fill="rgb(219,135,127)" opacity="0.28"/>
<polygon points="81,96 143,96 173,88 50,88" fill="url(#glferrari488)"/>
<polygon points="87,99 135,99 129,106 91,106" fill="rgba(255,255,255,0.20)"/>
<polygon points="70,166 154,166 182,183 41,183" fill="url(#glferrari488)"/>
<polygon points="143,96 165,108 173,178 154,166" fill="url(#glferrari488)" opacity="0.80"/>
<line x1="48" y1="114" x2="175" y2="114" stroke="rgb(159,14,0)" stroke-width="0.7" opacity="0.6"/>
<rect x="61" y="34" width="102" height="6" rx="3" fill="rgb(179,15,0)"/>
<rect x="66" y="38" width="92" height="3" rx="1" fill="rgb(153,13,0)"/>
<rect x="44" y="204" width="136" height="6" rx="3" fill="rgb(179,15,0)"/>
<rect x="62" y="34" width="22" height="7" rx="2" fill="#fffce8" opacity="0.95"/>
<rect x="140" y="34" width="22" height="7" rx="2" fill="#fffce8" opacity="0.95"/>
<rect x="64" y="36" width="18" height="2" rx="1" fill="rgba(255,255,180,0.55)"/>
<rect x="142" y="36" width="18" height="2" rx="1" fill="rgba(255,255,180,0.55)"/>
<rect x="45" y="203" width="29" height="7" rx="2" fill="#cc1100" opacity="0.92"/>
<rect x="150" y="203" width="29" height="7" rx="2" fill="#cc1100" opacity="0.92"/>
<ellipse cx="43" cy="79" rx="21" ry="18" fill="#151515"/>
<ellipse cx="42" cy="78" rx="19" ry="16" fill="#333" opacity="0.30"/>
<ellipse cx="43" cy="79" rx="12" ry="10" fill="url(#wgferrari488)"/>
<ellipse cx="43" cy="79" rx="8" ry="6" fill="none" stroke="#c8c8cc" stroke-width="1.8"/>
<line x1="43" y1="79" x2="50.3" y2="81.6" stroke="#b0b0b4" stroke-width="1.5"/>
<line x1="43" y1="79" x2="43.6" y2="85.8" stroke="#b0b0b4" stroke-width="1.5"/>
<line x1="43" y1="79" x2="36.9" y2="81.6" stroke="#b0b0b4" stroke-width="1.5"/>
<line x1="43" y1="79" x2="39.4" y2="74.9" stroke="#b0b0b4" stroke-width="1.5"/>
<line x1="43" y1="79" x2="47.7" y2="74.9" stroke="#b0b0b4" stroke-width="1.5"/>
<circle cx="43" cy="79" r="3" fill="#ddd"/>
<ellipse cx="43" cy="79" rx="7" ry="6" fill="#222" opacity="0.6"/>
<ellipse cx="180" cy="79" rx="21" ry="18" fill="#151515"/>
<ellipse cx="179" cy="78" rx="19" ry="16" fill="#333" opacity="0.30"/>
<ellipse cx="180" cy="79" rx="12" ry="10" fill="url(#wgferrari488)"/>
<ellipse cx="180" cy="79" rx="8" ry="6" fill="none" stroke="#c8c8cc" stroke-width="1.8"/>
<line x1="180" y1="79" x2="187.1" y2="81.6" stroke="#b0b0b4" stroke-width="1.5"/>
<line x1="180" y1="79" x2="180.4" y2="85.8" stroke="#b0b0b4" stroke-width="1.5"/>
<line x1="180" y1="79" x2="173.7" y2="81.6" stroke="#b0b0b4" stroke-width="1.5"/>
<line x1="180" y1="79" x2="176.3" y2="74.9" stroke="#b0b0b4" stroke-width="1.5"/>
<line x1="180" y1="79" x2="184.6" y2="74.9" stroke="#b0b0b4" stroke-width="1.5"/>
<circle cx="180" cy="79" r="3" fill="#ddd"/>
<ellipse cx="180" cy="79" rx="7" ry="6" fill="#222" opacity="0.6"/>
<ellipse cx="35" cy="160" rx="21" ry="18" fill="#151515"/>
<ellipse cx="34" cy="159" rx="19" ry="16" fill="#333" opacity="0.30"/>
<ellipse cx="35" cy="160" rx="12" ry="10" fill="url(#wgferrari488)"/>
<ellipse cx="35" cy="160" rx="8" ry="6" fill="none" stroke="#c8c8cc" stroke-width="1.8"/>
<line x1="35" y1="160" x2="42.5" y2="162.6" stroke="#b0b0b4" stroke-width="1.5"/>
<line x1="35" y1="160" x2="35.8" y2="166.8" stroke="#b0b0b4" stroke-width="1.5"/>
<line x1="35" y1="160" x2="29.1" y2="162.6" stroke="#b0b0b4" stroke-width="1.5"/>
<line x1="35" y1="160" x2="31.6" y2="155.8" stroke="#b0b0b4" stroke-width="1.5"/>
<line x1="35" y1="160" x2="39.9" y2="155.8" stroke="#b0b0b4" stroke-width="1.5"/>
<circle cx="35" cy="160" r="3" fill="#ddd"/>
<ellipse cx="35" cy="160" rx="7" ry="6" fill="#222" opacity="0.6"/>
<ellipse cx="188" cy="160" rx="21" ry="18" fill="#151515"/>
<ellipse cx="187" cy="159" rx="19" ry="16" fill="#333" opacity="0.30"/>
<ellipse cx="188" cy="160" rx="12" ry="10" fill="url(#wgferrari488)"/>
<ellipse cx="188" cy="160" rx="8" ry="6" fill="none" stroke="#c8c8cc" stroke-width="1.8"/>
<line x1="188" y1="160" x2="194.9" y2="162.6" stroke="#b0b0b4" stroke-width="1.5"/>
<line x1="188" y1="160" x2="188.2" y2="166.8" stroke="#b0b0b4" stroke-width="1.5"/>
<line x1="188" y1="160" x2="181.5" y2="162.6" stroke="#b0b0b4" stroke-width="1.5"/>
<line x1="188" y1="160" x2="184.1" y2="155.8" stroke="#b0b0b4" stroke-width="1.5"/>
<line x1="188" y1="160" x2="192.4" y2="155.8" stroke="#b0b0b4" stroke-width="1.5"/>
<circle cx="188" cy="160" r="3" fill="#ddd"/>
<ellipse cx="188" cy="160" rx="7" ry="6" fill="#222" opacity="0.6"/>
</svg>