<svg xmlns="http://www.w3.org/2000/svg" viewBox="0 0 256 256">
<defs>
<linearGradient id="pgmclaren720s" x1="0" y1="0" x2="0" y2="1">
  <stop offset="0%"   stop-color="rgb(241,172,140)"/>
  <stop offset="15%"  stop-color="rgb(232,123,71)"/>
  <stop offset="45%"  stop-color="rgb(224,72,0)"/>
  <stop offset="78%"  stop-color="rgb(145,46,0)"/>
  <stop offset="100%" stop-color="rgb(107,34,0)"/>
</linearGradient>
<linearGradient id="spmclaren720s" x1="0" y1="0" x2="1" y2="0">
  <stop offset="0%"   stop-color="rgb(94,30,0)"/>
  <stop offset="60%"  stop-color="rgb(62,20,0)"/>
  <stop offset="100%" stop-color="rgb(44,14,0)"/>
</linearGradient>
<linearGradient id="rgmclaren720s" x1="0" y1="0" x2="0" y2="1">
  <stop offset="0%"   stop-color="rgb(70,70,70)"/>
  <stop offset="40%"  stop-color="rgb(24,24,24)"/>
  <stop offset="100%" stop-color="rgb(16,16,16)"/>
</linearGradient>
<linearGradient id="glmclaren720s" x1="0" y1="0" x2="1" y2="1">
  <stop offset="0%"   stop-color="rgba(176,203,230,0.82)"/>
  <stop offset="50%"  stop-color="rgba(80,140,200,0.60)"/>
  <stop offset="100%" stop-color="rgba(60,105,150,0.72)"/>
</linearGradient>
<radialGradient id="wgmclaren720s" cx="40%" cy="35%" r="55%">
  <stop offset="0%"   stop-color="#c8c8cc"/>
  <stop offset="35%"  stop-color="#666"/>
  <stop offset="100%" stop-color="#111"/>
</radialGradient>
<filter id="sfmclaren720s" x="-30%" y="-30%" width="160%" height="160%">
  <feGaussianBlur stdDeviation="8"/>
</filter>
</defs>
<ellipse cx="140" cy="236" rx="108" ry="13" fill="rgba(0,0,0,0.30)" filter="url(#sfmclaren720s)"/>
<path d="M176,50 C188,72 196,100 198,126 C200,150 198,170 192,186 C186,200 174,210 160,216 L172,226 C190,218 204,204 210,182 C216,160 216,132 214,104 C212,74 204,44 190,28Z" fill="url(#spmclaren720s)"/>
<path d="M128,22 C112,22 88,34 80,50 C68,72 60,100 58,126 C56,150 58,170 64,186 C70,200 82,210 96,216 C108,220 118,224 128,224 C138,224 148,220 160,216 C174,210 186,200 192,186 C198,170 200,150 198,126 C196,100 188,72 176,50 C168,34 144,22 128,22Z" fill="url(#pgmclaren720s)"/>
<path d="M112,46 L128,22 L144,46" stroke="rgb(241,172,140)" stroke-width="1.5" fill="none" opacity="0.45"/>
<path d="M128,22 C112,22 88,34 80,50 C68,72 60,100 58,126 C56,150 58,170 64,186 C70,200 82,210 96,216 C108,220 118,224 128,224 C138,224 148,220 160,216 C174,210 186,200 192,186 C198,170 200,150 198,126 C196,100 188,72 176,50 C168,34 144,22 128,22Z" fill="none" stroke="rgb(241,172,140)" stroke-width="28" stroke-dasharray="40 200" stroke-dashoffset="60" opacity="0.12" stroke-linecap="round"/>
<path d="M96,30 L160,30 L166,46 L90,46Z" fill="rgb(89,28,0)" rx="2"/>
<line x1="100" y1="33" x2="156" y2="33" stroke="rgb(123,39,0)" stroke-width="1" opacity="0.7"/>
<line x1="100" y1="37" x2="156" y2="37" stroke="rgb(123,39,0)" stroke-width="1" opacity="0.7"/>
<line x1="100" y1="41" x2="156" y2="41" stroke="rgb(123,39,0)" stroke-width="1" opacity="0.7"/>
<path d="M108,110 C112,99 120,93 128,93 C136,93 144,99 148,110 L149,166 C146,176 138,182 128,182 C118,182 110,176 107,166Z" fill="url(#rgmclaren720s)"/>
<path d="M108,110 C112,99 120,93 128,93 C136,93 144,99 148,110 L149,166 C146,176 138,182 128,182 C118,182 110,176 107,166Z" fill="rgb(12,12,12)" transform="translate(12,4) scale(0.92,1)" opacity="0.85"/>
<path d="M108,110 C112,99 120,93 128,93 C136,93 144,99 148,110 L149,166 C146,176 138,182 128,182 C118,182 110,176 107,166Z" fill="rgb(127,127,127)" opacity="0.22"/>
<path d="M109,110 C113,99 120,93 128,93 C136,93 143,99 147,110 L148,122 C145,130 137,135 128,135 C119,135 111,130 108,122Z" fill="url(#glmclaren720s)"/>
<path d="M109,110 C113,99 120,93 128,93 C136,93 143,99 147,110 L148,122 C145,130 137,135 128,135 C119,135 111,130 108,122Z" fill="rgba(202,220,238,0.18)" transform="translate(0,2)"/>
<path d="M108,154 C111,145 119,140 128,140 C137,140 145,145 148,154 L149,165 C146,175 138,181 128,181 C118,181 110,175 107,165Z" fill="url(#glmclaren720s)"/>
<path d="M107,134 Q128,130 149,134" stroke="rgb(161,51,0)" stroke-width="1" fill="none" opacity="0.7"/>
<rect x="68" y="28" width="28" height="7" rx="3" fill="#fffce0" opacity="0.96"/>
<rect x="70" y="29" width="24" height="3" rx="1" fill="#ffee88" opacity="0.5"/>
<rect x="73"  y="30" width="18" height="2" rx="1" fill="rgba(255,250,200,0.7)"/>
<rect x="156" y="28" width="28" height="7" rx="3" fill="#fffce0" opacity="0.96"/>
<rect x="158" y="29" width="24" height="3" rx="1" fill="#ffee88" opacity="0.5"/>
<rect x="161"  y="30" width="18" height="2" rx="1" fill="rgba(255,250,200,0.7)"/>
<rect x="72" y="218" width="28" height="7" rx="3" fill="#cc1100" opacity="0.92"/>
<rect x="76" y="219" width="20" height="3" rx="1" fill="#ff2200" opacity="0.45"/>
<rect x="156" y="218" width="28" height="7" rx="3" fill="#cc1100" opacity="0.92"/>
<rect x="160" y="219" width="20" height="3" rx="1" fill="#ff2200" opacity="0.45"/>
<ellipse cx="64" cy="100" rx="23" ry="20" fill="#161616"/>
<ellipse cx="63" cy="99" rx="21" ry="18" fill="#2a2a2a" opacity="0.5"/>
<ellipse cx="64" cy="100" rx="13" ry="11" fill="url(#wgmclaren720s)"/>
<ellipse cx="64" cy="100" rx="9" ry="7" fill="none" stroke="#b8b8be" stroke-width="2.2"/>
<line x1="64" y1="100" x2="71.6" y2="102.2" stroke="#aaaaae" stroke-width="2"/>
<line x1="64" y1="100" x2="64.0" y2="107.0" stroke="#aaaaae" stroke-width="2"/>
<line x1="64" y1="100" x2="56.4" y2="102.2" stroke="#aaaaae" stroke-width="2"/>
<line x1="64" y1="100" x2="59.3" y2="94.3" stroke="#aaaaae" stroke-width="2"/>
<line x1="64" y1="100" x2="68.7" y2="94.3" stroke="#aaaaae" stroke-width="2"/>
<circle cx="64" cy="100" r="4" fill="#d0d0d4"/>
<circle cx="64" cy="100" r="2" fill="#888"/>
<ellipse cx="64" cy="100" rx="7" ry="6" fill="#1e1e1e" opacity="0.7"/>
<ellipse cx="192" cy="100" rx="23" ry="20" fill="#161616"/>
<ellipse cx="191" cy="99" rx="21" ry="18" fill="#2a2a2a" opacity="0.5"/>
<ellipse cx="192" cy="100" rx="13" ry="11" fill="url(#wgmclaren720s)"/>
<ellipse cx="192" cy="100" rx="9" ry="7" fill="none" stroke="#b8b8be" stroke-width="2.2"/>
<line x1="192" y1="100" x2="199.6" y2="102.2" stroke="#aaaaae" stroke-width="2"/>
<line x1="192" y1="100" x2="192.0" y2="107.0" stroke="#aaaaae" stroke-width="2"/>
<line x1="192" y1="100" x2="184.4" y2="102.2" stroke="#aaaaae" stroke-width="2"/>
<line x1="192" y1="100" x2="187.3" y2="94.3" stroke="#aaaaae" stroke-width="2"/>
<line x1="192" y1="100" x2="196.7" y2="94.3" stroke="#aaaaae" stroke-width="2"/>
<circle cx="192" cy="100" r="4" fill="#d0d0d4"/>
<circle cx="192" cy="100" r="2" fill="#888"/>
<ellipse cx="192" cy="100" rx="7" ry="6" fill="#1e1e1e" opacity="0.7"/>
<ellipse cx="60" cy="182" rx="23" ry="20" fill="#161616"/>
<ellipse cx="59" cy="181" rx="21" ry="18" fill="#2a2a2a" opacity="0.5"/>
<ellipse cx="60" cy="182" rx="13" ry="11" fill="url(#wgmclaren720s)"/>
<ellipse cx="60" cy="182" rx="9" ry="7" fill="none" stroke="#b8b8be" stroke-width="2.2"/>
<line x1="60" y1="182" x2="67.6" y2="184.2" stroke="#aaaaae" stroke-width="2"/>
<line x1="60" y1="182" x2="60.0" y2="189.0" stroke="#aaaaae" stroke-width="2"/>
<line x1="60" y1="182" x2="52.4" y2="184.2" stroke="#aaaaae" stroke-width="2"/>
<line x1="60" y1="182" x2="55.3" y2="176.3" stroke="#aaaaae" stroke-width="2"/>
<line x1="60" y1="182" x2="64.7" y2="176.3" stroke="#aaaaae" stroke-width="2"/>
<circle cx="60" cy="182" r="4" fill="#d0d0d4"/>
<circle cx="60" cy="182" r="2" fill="#888"/>
<ellipse cx="60" cy="182" rx="7" ry="6" fill="#1e1e1e" opacity="0.7"/>
<ellipse cx="196" cy="182" rx="23" ry="20" fill="#161616"/>
<ellipse cx="195" cy="181" rx="21" ry="18" fill="#2a2a2a" opacity="0.5"/>
<ellipse cx="196" cy="182" rx="13" ry="11" fill="url(#wgmclaren720s)"/>
<ellipse cx="196" cy="182" rx="9" ry="7" fill="none" stroke="#b8b8be" stroke-width="2.2"/>
<line x1="196" y1="182" x2="203.6" y2="184.2" stroke="#aaaaae" stroke-width="2"/>
<line x1="196" y1="182" x2="196.0" y2="189.0" stroke="#aaaaae" stroke-width="2"/>
<line x1="196" y1="182" x2="188.4" y2="184.2" stroke="#aaaaae" stroke-width="2"/>
<line x1="196" y1="182" x2="191.3" y2="176.3" stroke="#aaaaae" stroke-width="2"/>
<line x1="196" y1="182" x2="200.7" y2="176.3" stroke="#aaaaae" stroke-width="2"/>
<circle cx="196" cy="182" r="4" fill="#d0d0d4"/>
<circle cx="196" cy="182" r="2" fill="#888"/>
<ellipse cx="196" cy="182" rx="7" ry="6" fill="#1e1e1e" opacity="0.7"/>
</svg>