<svg xmlns="http://www.w3.org/2000/svg" viewBox="0 0 256 256">
<defs>
<linearGradient id="pgrangerover" x1="0" y1="0" x2="0" y2="1">
  <stop offset="0%"   stop-color="rgb(149,149,149)"/>
  <stop offset="15%"  stop-color="rgb(85,85,85)"/>
  <stop offset="45%"  stop-color="rgb(20,20,20)"/>
  <stop offset="78%"  stop-color="rgb(13,13,13)"/>
  <stop offset="100%" stop-color="rgb(9,9,9)"/>
</linearGradient>
<linearGradient id="sprangerover" x1="0" y1="0" x2="1" y2="0">
  <stop offset="0%"   stop-color="rgb(8,8,8)"/>
  <stop offset="60%"  stop-color="rgb(5,5,5)"/>
  <stop offset="100%" stop-color="rgb(3,3,3)"/>
</linearGradient>
<linearGradient id="rgrangerover" x1="0" y1="0" x2="0" y2="1">
  <stop offset="0%"   stop-color="rgb(59,59,59)"/>
  <stop offset="40%"  stop-color="rgb(10,10,10)"/>
  <stop offset="100%" stop-color="rgb(7,7,7)"/>
</linearGradient>
<linearGradient id="glrangerover" x1="0" y1="0" x2="1" y2="1">
  <stop offset="0%"   stop-color="rgba(183,190,205,0.82)"/>
  <stop offset="50%"  stop-color="rgba(96,112,144,0.60)"/>
  <stop offset="100%" stop-color="rgba(72,84,108,0.72)"/>
</linearGradient>
<radialGradient id="wgrangerover" cx="40%" cy="35%" r="55%">
  <stop offset="0%"   stop-color="#c8c8cc"/>
  <stop offset="35%"  stop-color="#666"/>
  <stop offset="100%" stop-color="#111"/>
</radialGradient>
<filter id="sfrangerover" x="-30%" y="-30%" width="160%" height="160%">
  <feGaussianBlur stdDeviation="8"/>
</filter>
</defs>
<ellipse cx="140" cy="236" rx="108" ry="13" fill="rgba(0,0,0,0.30)" filter="url(#sfrangerover)"/>
<path d="M170,42 C180,60 186,84 188,108 C190,130 190,154 186,174 C182,192 172,208 156,218 L168,228 C186,218 198,200 202,178 C206,156 206,128 204,104 C202,78 196,52 184,34Z" fill="url(#sprangerover)"/>
<path d="M128,22 C114,22 94,28 86,42 C76,60 70,84 68,108 C66,130 66,154 70,174 C74,192 84,208 100,218 C110,224 120,228 128,228 C136,228 146,224 156,218 C172,208 182,192 186,174 C190,154 190,130 188,108 C186,84 180,60 170,42 C162,28 142,22 128,22Z" fill="url(#pgrangerover)"/>
<path d="M128,22 C114,22 94,28 86,42 C76,60 70,84 68,108 C66,130 66,154 70,174 C74,192 84,208 100,218 C110,224 120,228 128,228 C136,228 146,224 156,218 C172,208 182,192 186,174 C190,154 190,130 188,108 C186,84 180,60 170,42 C162,28 142,22 128,22Z" fill="none" stroke="rgb(149,149,149)" stroke-width="28" stroke-dasharray="40 200" stroke-dashoffset="60" opacity="0.12" stroke-linecap="round"/>
<path d="M94,30 L162,30 L166,44 L90,44Z" fill="rgb(8,8,8)" rx="2"/>
<line x1="100" y1="33" x2="156" y2="33" stroke="rgb(11,11,11)" stroke-width="1" opacity="0.7"/>
<line x1="100" y1="37" x2="156" y2="37" stroke="rgb(11,11,11)" stroke-width="1" opacity="0.7"/>
<line x1="100" y1="41" x2="156" y2="41" stroke="rgb(11,11,11)" stroke-width="1" opacity="0.7"/>
<path d="M98,100 C102,88 114,82 128,82 C142,82 154,88 158,100 L160,188 C156,198 144,204 128,204 C112,204 100,198 96,188Z" fill="url(#rgrangerover)"/>
<path d="M98,100 C102,88 114,82 128,82 C142,82 154,88 158,100 L160,188 C156,198 144,204 128,204 C112,204 100,198 96,188Z" fill="rgb(5,5,5)" transform="translate(12,4) scale(0.92,1)" opacity="0.85"/>
<path d="M98,100 C102,88 114,82 128,82 C142,82 154,88 158,100 L160,188 C156,198 144,204 128,204 C112,204 100,198 96,188Z" fill="rgb(120,120,120)" opacity="0.22"/>
<path d="M100,100 C104,88 114,82 128,82 C142,82 152,88 156,100 L158,114 C154,122 142,127 128,127 C114,127 102,122 98,114Z" fill="url(#glrangerover)"/>
<path d="M100,100 C104,88 114,82 128,82 C142,82 152,88 156,100 L158,114 C154,122 142,127 128,127 C114,127 102,122 98,114Z" fill="rgba(207,212,221,0.18)" transform="translate(0,2)"/>
<path d="M98,172 C102,162 113,156 128,156 C143,156 154,162 158,172 L159,188 C155,198 143,204 128,204 C113,204 101,198 97,188Z" fill="url(#glrangerover)"/>
<path d="M96,128 Q128,124 160,128 M96,170 Q128,166 160,170" stroke="rgb(14,14,14)" stroke-width="1" fill="none" opacity="0.7"/>
<rect x="72" y="28" width="28" height="7" rx="3" fill="#fffce0" opacity="0.96"/>
<rect x="74" y="29" width="24" height="3" rx="1" fill="#ffee88" opacity="0.5"/>
<rect x="77"  y="30" width="18" height="2" rx="1" fill="rgba(255,250,200,0.7)"/>
<rect x="156" y="28" width="28" height="7" rx="3" fill="#fffce0" opacity="0.96"/>
<rect x="158" y="29" width="24" height="3" rx="1" fill="#ffee88" opacity="0.5"/>
<rect x="161"  y="30" width="18" height="2" rx="1" fill="rgba(255,250,200,0.7)"/>
<rect x="76" y="220" width="28" height="7" rx="3" fill="#cc1100" opacity="0.92"/>
<rect x="80" y="221" width="20" height="3" rx="1" fill="#ff2200" opacity="0.45"/>
<rect x="152" y="220" width="28" height="7" rx="3" fill="#cc1100" opacity="0.92"/>
<rect x="156" y="221" width="20" height="3" rx="1" fill="#ff2200" opacity="0.45"/>
<ellipse cx="70" cy="90" rx="25" ry="22" fill="#161616"/>
<ellipse cx="69" cy="89" rx="23" ry="20" fill="#2a2a2a" opacity="0.5"/>
<ellipse cx="70" cy="90" rx="15" ry="13" fill="url(#wgrangerover)"/>
<ellipse cx="70" cy="90" rx="10" ry="8" fill="none" stroke="#b8b8be" stroke-width="2.2"/>
<line x1="70" y1="90" x2="78.6" y2="92.4" stroke="#aaaaae" stroke-width="2"/>
<line x1="70" y1="90" x2="70.0" y2="97.9" stroke="#aaaaae" stroke-width="2"/>
<line x1="70" y1="90" x2="61.4" y2="92.4" stroke="#aaaaae" stroke-width="2"/>
<line x1="70" y1="90" x2="64.7" y2="83.6" stroke="#aaaaae" stroke-width="2"/>
<line x1="70" y1="90" x2="75.3" y2="83.6" stroke="#aaaaae" stroke-width="2"/>
<circle cx="70" cy="90" r="4" fill="#d0d0d4"/>
<circle cx="70" cy="90" r="2" fill="#888"/>
<ellipse cx="70" cy="90" rx="8" ry="7" fill="#1e1e1e" opacity="0.7"/>
<ellipse cx="186" cy="90" rx="25" ry="22" fill="#161616"/>
<ellipse cx="185" cy="89" rx="23" ry="20" fill="#2a2a2a" opacity="0.5"/>
<ellipse cx="186" cy="90" rx="15" ry="13" fill="url(#wgrangerover)"/>
<ellipse cx="186" cy="90" rx="10" ry="8" fill="none" stroke="#b8b8be" stroke-width="2.2"/>
<line x1="186" y1="90" x2="194.6" y2="92.4" stroke="#aaaaae" stroke-width="2"/>
<line x1="186" y1="90" x2="186.0" y2="97.9" stroke="#aaaaae" stroke-width="2"/>
<line x1="186" y1="90" x2="177.4" y2="92.4" stroke="#aaaaae" stroke-width="2"/>
<line x1="186" y1="90" x2="180.7" y2="83.6" stroke="#aaaaae" stroke-width="2"/>
<line x1="186" y1="90" x2="191.3" y2="83.6" stroke="#aaaaae" stroke-width="2"/>
<circle cx="186" cy="90" r="4" fill="#d0d0d4"/>
<circle cx="186" cy="90" r="2" fill="#888"/>
<ellipse cx="186" cy="90" rx="8" ry="7" fill="#1e1e1e" opacity="0.7"/>
<ellipse cx="66" cy="182" rx="25" ry="22" fill="#161616"/>
<ellipse cx="65" cy="181" rx="23" ry="20" fill="#2a2a2a" opacity="0.5"/>
<ellipse cx="66" cy="182" rx="15" ry="13" fill="url(#wgrangerover)"/>
<ellipse cx="66" cy="182" rx="10" ry="8" fill="none" stroke="#b8b8be" stroke-width="2.2"/>
<line x1="66" y1="182" x2="74.6" y2="184.4" stroke="#aaaaae" stroke-width="2"/>
<line x1="66" y1="182" x2="66.0" y2="189.9" stroke="#aaaaae" stroke-width="2"/>
<line x1="66" y1="182" x2="57.4" y2="184.4" stroke="#aaaaae" stroke-width="2"/>
<line x1="66" y1="182" x2="60.7" y2="175.6" stroke="#aaaaae" stroke-width="2"/>
<line x1="66" y1="182" x2="71.3" y2="175.6" stroke="#aaaaae" stroke-width="2"/>
<circle cx="66" cy="182" r="4" fill="#d0d0d4"/>
<circle cx="66" cy="182" r="2" fill="#888"/>
<ellipse cx="66" cy="182" rx="8" ry="7" fill="#1e1e1e" opacity="0.7"/>
<ellipse cx="190" cy="182" rx="25" ry="22" fill="#161616"/>
<ellipse cx="189" cy="181" rx="23" ry="20" fill="#2a2a2a" opacity="0.5"/>
<ellipse cx="190" cy="182" rx="15" ry="13" fill="url(#wgrangerover)"/>
<ellipse cx="190" cy="182" rx="10" ry="8" fill="none" stroke="#b8b8be" stroke-width="2.2"/>
<line x1="190" y1="182" x2="198.6" y2="184.4" stroke="#aaaaae" stroke-width="2"/>
<line x1="190" y1="182" x2="190.0" y2="189.9" stroke="#aaaaae" stroke-width="2"/>
<line x1="190" y1="182" x2="181.4" y2="184.4" stroke="#aaaaae" stroke-width="2"/>
<line x1="190" y1="182" x2="184.7" y2="175.6" stroke="#aaaaae" stroke-width="2"/>
<line x1="190" y1="182" x2="195.3" y2="175.6" stroke="#aaaaae" stroke-width="2"/>
<circle cx="190" cy="182" r="4" fill="#d0d0d4"/>
<circle cx="190" cy="182" r="2" fill="#888"/>
<ellipse cx="190" cy="182" rx="8" ry="7" fill="#1e1e1e" opacity="0.7"/>
</svg>