<svg xmlns="http://www.w3.org/2000/svg" viewBox="0 0 256 256">
<defs>
<linearGradient id="pgrollsroyce" x1="0" y1="0" x2="0" y2="1">
  <stop offset="0%"   stop-color="rgb(248,246,244)"/>
  <stop offset="15%"  stop-color="rgb(244,242,238)"/>
  <stop offset="45%"  stop-color="rgb(240,237,232)"/>
  <stop offset="78%"  stop-color="rgb(156,154,150)"/>
  <stop offset="100%" stop-color="rgb(115,113,111)"/>
</linearGradient>
<linearGradient id="sprollsroyce" x1="0" y1="0" x2="1" y2="0">
  <stop offset="0%"   stop-color="rgb(100,99,97)"/>
  <stop offset="60%"  stop-color="rgb(67,66,64)"/>
  <stop offset="100%" stop-color="rgb(47,47,46)"/>
</linearGradient>
<linearGradient id="rgrollsroyce" x1="0" y1="0" x2="0" y2="1">
  <stop offset="0%"   stop-color="rgb(70,70,68)"/>
  <stop offset="40%"  stop-color="rgb(24,24,22)"/>
  <stop offset="100%" stop-color="rgb(16,16,15)"/>
</linearGradient>
<linearGradient id="glrollsroyce" x1="0" y1="0" x2="1" y2="1">
  <stop offset="0%"   stop-color="rgba(212,226,233,0.82)"/>
  <stop offset="50%"  stop-color="rgba(160,192,208,0.60)"/>
  <stop offset="100%" stop-color="rgba(120,144,156,0.72)"/>
</linearGradient>
<radialGradient id="wgrollsroyce" cx="40%" cy="35%" r="55%">
  <stop offset="0%"   stop-color="#c8c8cc"/>
  <stop offset="35%"  stop-color="#666"/>
  <stop offset="100%" stop-color="#111"/>
</radialGradient>
<filter id="sfrollsroyce" x="-30%" y="-30%" width="160%" height="160%">
  <feGaussianBlur stdDeviation="8"/>
</filter>
</defs>
<ellipse cx="140" cy="236" rx="108" ry="13" fill="rgba(0,0,0,0.30)" filter="url(#sfrollsroyce)"/>
<path d="M160,46 C170,64 176,88 178,112 C180,134 180,156 176,174 C172,190 162,204 148,212 L158,220 C174,212 186,196 190,172 C194,150 194,128 192,104 C190,78 184,52 174,34Z" fill="url(#sprollsroyce)"/>
<path d="M128,24 C118,24 102,32 96,46 C86,64 80,88 78,112 C76,134 76,156 80,174 C84,190 94,204 108,212 C116,218 122,222 128,222 C134,222 140,218 148,212 C162,204 172,190 176,174 C180,156 180,134 178,112 C176,88 170,64 160,46 C154,32 138,24 128,24Z" fill="url(#pgrollsroyce)"/>
<path d="M128,24 C118,24 102,32 96,46 C86,64 80,88 78,112 C76,134 76,156 80,174 C84,190 94,204 108,212 C116,218 122,222 128,222 C134,222 140,218 148,212 C162,204 172,190 176,174 C180,156 180,134 178,112 C176,88 170,64 160,46 C154,32 138,24 128,24Z" fill="none" stroke="rgb(248,246,244)" stroke-width="28" stroke-dasharray="40 200" stroke-dashoffset="60" opacity="0.12" stroke-linecap="round"/>
<path d="M108,30 L148,30 L152,42 L104,42Z" fill="rgb(96,94,92)" rx="2"/>
<line x1="100" y1="33" x2="156" y2="33" stroke="rgb(132,130,127)" stroke-width="1" opacity="0.7"/>
<line x1="100" y1="37" x2="156" y2="37" stroke="rgb(132,130,127)" stroke-width="1" opacity="0.7"/>
<line x1="100" y1="41" x2="156" y2="41" stroke="rgb(132,130,127)" stroke-width="1" opacity="0.7"/>
<path d="M104,104 C108,94 118,88 128,88 C138,88 148,94 152,104 L154,180 C150,190 140,196 128,196 C116,196 106,190 102,180Z" fill="url(#rgrollsroyce)"/>
<path d="M104,104 C108,94 118,88 128,88 C138,88 148,94 152,104 L154,180 C150,190 140,196 128,196 C116,196 106,190 102,180Z" fill="rgb(12,12,11)" transform="translate(12,4) scale(0.92,1)" opacity="0.85"/>
<path d="M104,104 C108,94 118,88 128,88 C138,88 148,94 152,104 L154,180 C150,190 140,196 128,196 C116,196 106,190 102,180Z" fill="rgb(127,127,126)" opacity="0.22"/>
<path d="M106,104 C110,94 119,88 128,88 C137,88 146,94 150,104 L152,118 C148,126 138,130 128,130 C118,130 108,126 104,118Z" fill="url(#glrollsroyce)"/>
<path d="M106,104 C110,94 119,88 128,88 C137,88 146,94 150,104 L152,118 C148,126 138,130 128,130 C118,130 108,126 104,118Z" fill="rgba(226,236,240,0.18)" transform="translate(0,2)"/>
<path d="M104,166 C108,156 118,150 128,150 C138,150 148,156 152,166 L153,180 C149,190 139,196 128,196 C117,196 107,190 103,180Z" fill="url(#glrollsroyce)"/>
<path d="M102,132 Q128,128 154,132 M102,164 Q128,160 154,164" stroke="rgb(172,170,167)" stroke-width="1" fill="none" opacity="0.7"/>
<rect x="82" y="30" width="28" height="7" rx="3" fill="#fffce0" opacity="0.96"/>
<rect x="84" y="31" width="24" height="3" rx="1" fill="#ffee88" opacity="0.5"/>
<rect x="87"  y="32" width="18" height="2" rx="1" fill="rgba(255,250,200,0.7)"/>
<rect x="142" y="30" width="28" height="7" rx="3" fill="#fffce0" opacity="0.96"/>
<rect x="144" y="31" width="24" height="3" rx="1" fill="#ffee88" opacity="0.5"/>
<rect x="147"  y="32" width="18" height="2" rx="1" fill="rgba(255,250,200,0.7)"/>
<rect x="84" y="214" width="28" height="7" rx="3" fill="#cc1100" opacity="0.92"/>
<rect x="88" y="215" width="20" height="3" rx="1" fill="#ff2200" opacity="0.45"/>
<rect x="144" y="214" width="28" height="7" rx="3" fill="#cc1100" opacity="0.92"/>
<rect x="148" y="215" width="20" height="3" rx="1" fill="#ff2200" opacity="0.45"/>
<ellipse cx="80" cy="88" rx="20" ry="17" fill="#161616"/>
<ellipse cx="79" cy="87" rx="18" ry="15" fill="#2a2a2a" opacity="0.5"/>
<ellipse cx="80" cy="88" rx="12" ry="10" fill="url(#wgrollsroyce)"/>
<ellipse cx="80" cy="88" rx="8" ry="7" fill="none" stroke="#b8b8be" stroke-width="2.2"/>
<line x1="80" y1="88" x2="86.7" y2="89.9" stroke="#aaaaae" stroke-width="2"/>
<line x1="80" y1="88" x2="80.0" y2="94.2" stroke="#aaaaae" stroke-width="2"/>
<line x1="80" y1="88" x2="73.3" y2="89.9" stroke="#aaaaae" stroke-width="2"/>
<line x1="80" y1="88" x2="75.9" y2="83.0" stroke="#aaaaae" stroke-width="2"/>
<line x1="80" y1="88" x2="84.1" y2="83.0" stroke="#aaaaae" stroke-width="2"/>
<circle cx="80" cy="88" r="4" fill="#d0d0d4"/>
<circle cx="80" cy="88" r="2" fill="#888"/>
<ellipse cx="80" cy="88" rx="6" ry="5" fill="#1e1e1e" opacity="0.7"/>
<ellipse cx="176" cy="88" rx="20" ry="17" fill="#161616"/>
<ellipse cx="175" cy="87" rx="18" ry="15" fill="#2a2a2a" opacity="0.5"/>
<ellipse cx="176" cy="88" rx="12" ry="10" fill="url(#wgrollsroyce)"/>
<ellipse cx="176" cy="88" rx="8" ry="7" fill="none" stroke="#b8b8be" stroke-width="2.2"/>
<line x1="176" y1="88" x2="182.7" y2="89.9" stroke="#aaaaae" stroke-width="2"/>
<line x1="176" y1="88" x2="176.0" y2="94.2" stroke="#aaaaae" stroke-width="2"/>
<line x1="176" y1="88" x2="169.3" y2="89.9" stroke="#aaaaae" stroke-width="2"/>
<line x1="176" y1="88" x2="171.9" y2="83.0" stroke="#aaaaae" stroke-width="2"/>
<line x1="176" y1="88" x2="180.1" y2="83.0" stroke="#aaaaae" stroke-width="2"/>
<circle cx="176" cy="88" r="4" fill="#d0d0d4"/>
<circle cx="176" cy="88" r="2" fill="#888"/>
<ellipse cx="176" cy="88" rx="6" ry="5" fill="#1e1e1e" opacity="0.7"/>
<ellipse cx="76" cy="178" rx="20" ry="17" fill="#161616"/>
<ellipse cx="75" cy="177" rx="18" ry="15" fill="#2a2a2a" opacity="0.5"/>
<ellipse cx="76" cy="178" rx="12" ry="10" fill="url(#wgrollsroyce)"/>
<ellipse cx="76" cy="178" rx="8" ry="7" fill="none" stroke="#b8b8be" stroke-width="2.2"/>
<line x1="76" y1="178" x2="82.7" y2="179.9" stroke="#aaaaae" stroke-width="2"/>
<line x1="76" y1="178" x2="76.0" y2="184.2" stroke="#aaaaae" stroke-width="2"/>
<line x1="76" y1="178" x2="69.3" y2="179.9" stroke="#aaaaae" stroke-width="2"/>
<line x1="76" y1="178" x2="71.9" y2="173.0" stroke="#aaaaae" stroke-width="2"/>
<line x1="76" y1="178" x2="80.1" y2="173.0" stroke="#aaaaae" stroke-width="2"/>
<circle cx="76" cy="178" r="4" fill="#d0d0d4"/>
<circle cx="76" cy="178" r="2" fill="#888"/>
<ellipse cx="76" cy="178" rx="6" ry="5" fill="#1e1e1e" opacity="0.7"/>
<ellipse cx="180" cy="178" rx="20" ry="17" fill="#161616"/>
<ellipse cx="179" cy="177" rx="18" ry="15" fill="#2a2a2a" opacity="0.5"/>
<ellipse cx="180" cy="178" rx="12" ry="10" fill="url(#wgrollsroyce)"/>
<ellipse cx="180" cy="178" rx="8" ry="7" fill="none" stroke="#b8b8be" stroke-width="2.2"/>
<line x1="180" y1="178" x2="186.7" y2="179.9" stroke="#aaaaae" stroke-width="2"/>
<line x1="180" y1="178" x2="180.0" y2="184.2" stroke="#aaaaae" stroke-width="2"/>
<line x1="180" y1="178" x2="173.3" y2="179.9" stroke="#aaaaae" stroke-width="2"/>
<line x1="180" y1="178" x2="175.9" y2="173.0" stroke="#aaaaae" stroke-width="2"/>
<line x1="180" y1="178" x2="184.1" y2="173.0" stroke="#aaaaae" stroke-width="2"/>
<circle cx="180" cy="178" r="4" fill="#d0d0d4"/>
<circle cx="180" cy="178" r="2" fill="#888"/>
<ellipse cx="180" cy="178" rx="6" ry="5" fill="#1e1e1e" opacity="0.7"/>
</svg>