<svg xmlns="http://www.w3.org/2000/svg" viewBox="0 0 256 256">
<defs>
<linearGradient id="pgwrangler" x1="0" y1="0" x2="0" y2="1">
  <stop offset="0%"   stop-color="rgb(167,180,153)"/>
  <stop offset="15%"  stop-color="rgb(114,136,93)"/>
  <stop offset="45%"  stop-color="rgb(60,90,30)"/>
  <stop offset="78%"  stop-color="rgb(39,58,19)"/>
  <stop offset="100%" stop-color="rgb(28,43,14)"/>
</linearGradient>
<linearGradient id="spwrangler" x1="0" y1="0" x2="1" y2="0">
  <stop offset="0%"   stop-color="rgb(25,37,12)"/>
  <stop offset="60%"  stop-color="rgb(16,25,8)"/>
  <stop offset="100%" stop-color="rgb(11,17,5)"/>
</linearGradient>
<linearGradient id="rgwrangler" x1="0" y1="0" x2="0" y2="1">
  <stop offset="0%"   stop-color="rgb(83,102,62)"/>
  <stop offset="40%"  stop-color="rgb(40,64,14)"/>
  <stop offset="100%" stop-color="rgb(28,44,9)"/>
</linearGradient>
<linearGradient id="glwrangler" x1="0" y1="0" x2="1" y2="1">
  <stop offset="0%"   stop-color="rgba(197,212,183,0.82)"/>
  <stop offset="50%"  stop-color="rgba(128,160,96,0.60)"/>
  <stop offset="100%" stop-color="rgba(96,120,72,0.72)"/>
</linearGradient>
<radialGradient id="wgwrangler" cx="40%" cy="35%" r="55%">
  <stop offset="0%"   stop-color="#c8c8cc"/>
  <stop offset="35%"  stop-color="#666"/>
  <stop offset="100%" stop-color="#111"/>
</radialGradient>
<filter id="sfwrangler" x="-30%" y="-30%" width="160%" height="160%">
  <feGaussianBlur stdDeviation="8"/>
</filter>
</defs>
<ellipse cx="140" cy="236" rx="108" ry="13" fill="rgba(0,0,0,0.30)" filter="url(#sfwrangler)"/>
<path d="M172,40 C182,58 186,82 188,106 C190,128 190,150 186,168 C182,184 172,196 158,204 L168,214 C186,204 198,190 202,168 C206,146 206,122 204,98 C202,72 196,46 184,28Z" fill="url(#spwrangler)"/>
<path d="M128,20 C112,20 90,26 84,40 C74,58 70,82 68,106 C66,128 66,150 70,168 C74,184 84,196 98,204 C108,210 118,214 128,214 C138,214 148,210 158,204 C172,196 182,184 186,168 C190,150 190,128 188,106 C186,82 182,58 172,40 C166,26 144,20 128,20Z" fill="url(#pgwrangler)"/>
<path d="M128,20 C112,20 90,26 84,40 C74,58 70,82 68,106 C66,128 66,150 70,168 C74,184 84,196 98,204 C108,210 118,214 128,214 C138,214 148,210 158,204 C172,196 182,184 186,168 C190,150 190,128 188,106 C186,82 182,58 172,40 C166,26 144,20 128,20Z" fill="none" stroke="rgb(167,180,153)" stroke-width="28" stroke-dasharray="40 200" stroke-dashoffset="60" opacity="0.12" stroke-linecap="round"/>
<path d="M92,26 L164,26 L168,42 L88,42Z" fill="rgb(24,36,12)" rx="2"/>
<line x1="100" y1="33" x2="156" y2="33" stroke="rgb(33,49,16)" stroke-width="1" opacity="0.7"/>
<line x1="100" y1="37" x2="156" y2="37" stroke="rgb(33,49,16)" stroke-width="1" opacity="0.7"/>
<line x1="100" y1="41" x2="156" y2="41" stroke="rgb(33,49,16)" stroke-width="1" opacity="0.7"/>
<path d="M98,96 C102,84 114,78 128,78 C142,78 154,84 158,96 L160,176 C156,186 143,192 128,192 C113,192 100,186 96,176Z" fill="url(#rgwrangler)"/>
<path d="M98,96 C102,84 114,78 128,78 C142,78 154,84 158,96 L160,176 C156,186 143,192 128,192 C113,192 100,186 96,176Z" fill="rgb(20,33,7)" transform="translate(12,4) scale(0.92,1)" opacity="0.85"/>
<path d="M98,96 C102,84 114,78 128,78 C142,78 154,84 158,96 L160,176 C156,186 143,192 128,192 C113,192 100,186 96,176Z" fill="rgb(136,149,122)" opacity="0.22"/>
<path d="M100,96 C104,84 114,78 128,78 C142,78 152,84 156,96 L158,112 C154,120 142,126 128,126 C114,126 102,120 98,112Z" fill="url(#glwrangler)"/>
<path d="M100,96 C104,84 114,78 128,78 C142,78 152,84 156,96 L158,112 C154,120 142,126 128,126 C114,126 102,120 98,112Z" fill="rgba(216,226,207,0.18)" transform="translate(0,2)"/>
<path d="M98,160 C102,150 113,144 128,144 C143,144 154,150 158,160 L160,176 C156,186 143,192 128,192 C113,192 100,186 96,176Z" fill="url(#glwrangler)"/>
<path d="M96,128 Q128,124 160,128 M96,162 Q128,158 160,162" stroke="rgb(43,64,21)" stroke-width="1" fill="none" opacity="0.7"/>
<rect x="72" y="24" width="28" height="7" rx="3" fill="#fffce0" opacity="0.96"/>
<rect x="74" y="25" width="24" height="3" rx="1" fill="#ffee88" opacity="0.5"/>
<rect x="77"  y="26" width="18" height="2" rx="1" fill="rgba(255,250,200,0.7)"/>
<rect x="154" y="24" width="28" height="7" rx="3" fill="#fffce0" opacity="0.96"/>
<rect x="156" y="25" width="24" height="3" rx="1" fill="#ffee88" opacity="0.5"/>
<rect x="159"  y="26" width="18" height="2" rx="1" fill="rgba(255,250,200,0.7)"/>
<rect x="76" y="206" width="28" height="7" rx="3" fill="#cc1100" opacity="0.92"/>
<rect x="80" y="207" width="20" height="3" rx="1" fill="#ff2200" opacity="0.45"/>
<rect x="152" y="206" width="28" height="7" rx="3" fill="#cc1100" opacity="0.92"/>
<rect x="156" y="207" width="20" height="3" rx="1" fill="#ff2200" opacity="0.45"/>
<ellipse cx="66" cy="88" rx="27" ry="23" fill="#161616"/>
<ellipse cx="65" cy="87" rx="25" ry="22" fill="#2a2a2a" opacity="0.5"/>
<ellipse cx="66" cy="88" rx="16" ry="14" fill="url(#wgwrangler)"/>
<ellipse cx="66" cy="88" rx="11" ry="9" fill="none" stroke="#b8b8be" stroke-width="2.2"/>
<line x1="66" y1="88" x2="75.5" y2="90.7" stroke="#aaaaae" stroke-width="2"/>
<line x1="66" y1="88" x2="66.0" y2="96.8" stroke="#aaaaae" stroke-width="2"/>
<line x1="66" y1="88" x2="56.5" y2="90.7" stroke="#aaaaae" stroke-width="2"/>
<line x1="66" y1="88" x2="60.1" y2="80.9" stroke="#aaaaae" stroke-width="2"/>
<line x1="66" y1="88" x2="71.9" y2="80.9" stroke="#aaaaae" stroke-width="2"/>
<circle cx="66" cy="88" r="4" fill="#d0d0d4"/>
<circle cx="66" cy="88" r="2" fill="#888"/>
<ellipse cx="66" cy="88" rx="8" ry="7" fill="#1e1e1e" opacity="0.7"/>
<ellipse cx="190" cy="88" rx="27" ry="23" fill="#161616"/>
<ellipse cx="189" cy="87" rx="25" ry="22" fill="#2a2a2a" opacity="0.5"/>
<ellipse cx="190" cy="88" rx="16" ry="14" fill="url(#wgwrangler)"/>
<ellipse cx="190" cy="88" rx="11" ry="9" fill="none" stroke="#b8b8be" stroke-width="2.2"/>
<line x1="190" y1="88" x2="199.5" y2="90.7" stroke="#aaaaae" stroke-width="2"/>
<line x1="190" y1="88" x2="190.0" y2="96.8" stroke="#aaaaae" stroke-width="2"/>
<line x1="190" y1="88" x2="180.5" y2="90.7" stroke="#aaaaae" stroke-width="2"/>
<line x1="190" y1="88" x2="184.1" y2="80.9" stroke="#aaaaae" stroke-width="2"/>
<line x1="190" y1="88" x2="195.9" y2="80.9" stroke="#aaaaae" stroke-width="2"/>
<circle cx="190" cy="88" r="4" fill="#d0d0d4"/>
<circle cx="190" cy="88" r="2" fill="#888"/>
<ellipse cx="190" cy="88" rx="8" ry="7" fill="#1e1e1e" opacity="0.7"/>
<ellipse cx="62" cy="178" rx="27" ry="23" fill="#161616"/>
<ellipse cx="61" cy="177" rx="25" ry="22" fill="#2a2a2a" opacity="0.5"/>
<ellipse cx="62" cy="178" rx="16" ry="14" fill="url(#wgwrangler)"/>
<ellipse cx="62" cy="178" rx="11" ry="9" fill="none" stroke="#b8b8be" stroke-width="2.2"/>
<line x1="62" y1="178" x2="71.5" y2="180.7" stroke="#aaaaae" stroke-width="2"/>
<line x1="62" y1="178" x2="62.0" y2="186.8" stroke="#aaaaae" stroke-width="2"/>
<line x1="62" y1="178" x2="52.5" y2="180.7" stroke="#aaaaae" stroke-width="2"/>
<line x1="62" y1="178" x2="56.1" y2="170.9" stroke="#aaaaae" stroke-width="2"/>
<line x1="62" y1="178" x2="67.9" y2="170.9" stroke="#aaaaae" stroke-width="2"/>
<circle cx="62" cy="178" r="4" fill="#d0d0d4"/>
<circle cx="62" cy="178" r="2" fill="#888"/>
<ellipse cx="62" cy="178" rx="8" ry="7" fill="#1e1e1e" opacity="0.7"/>
<ellipse cx="194" cy="178" rx="27" ry="23" fill="#161616"/>
<ellipse cx="193" cy="177" rx="25" ry="22" fill="#2a2a2a" opacity="0.5"/>
<ellipse cx="194" cy="178" rx="16" ry="14" fill="url(#wgwrangler)"/>
<ellipse cx="194" cy="178" rx="11" ry="9" fill="none" stroke="#b8b8be" stroke-width="2.2"/>
<line x1="194" y1="178" x2="203.5" y2="180.7" stroke="#aaaaae" stroke-width="2"/>
<line x1="194" y1="178" x2="194.0" y2="186.8" stroke="#aaaaae" stroke-width="2"/>
<line x1="194" y1="178" x2="184.5" y2="180.7" stroke="#aaaaae" stroke-width="2"/>
<line x1="194" y1="178" x2="188.1" y2="170.9" stroke="#aaaaae" stroke-width="2"/>
<line x1="194" y1="178" x2="199.9" y2="170.9" stroke="#aaaaae" stroke-width="2"/>
<circle cx="194" cy="178" r="4" fill="#d0d0d4"/>
<circle cx="194" cy="178" r="2" fill="#888"/>
<ellipse cx="194" cy="178" rx="8" ry="7" fill="#1e1e1e" opacity="0.7"/>
</svg>